<?xml version="1.0" encoding="UTF-8" standalone="no"?>
<svg
   width="450"
   height="450"
   viewBox="0 0 50.369617 49.826836"
   version="1.1"
   id="svg151"
   sodipodi:docname="splash_screen.svg"
   inkscape:version="1.3 (0e150ed6c4, 2023-07-21)"
   xmlns:inkscape="http://www.inkscape.org/namespaces/inkscape"
   xmlns:sodipodi="http://sodipodi.sourceforge.net/DTD/sodipodi-0.dtd"
   xmlns="http://www.w3.org/2000/svg"
   xmlns:svg="http://www.w3.org/2000/svg">
  <sodipodi:namedview
     id="namedview153"
     pagecolor="#ffffff"
     bordercolor="#000000"
     borderopacity="0.25"
     inkscape:showpageshadow="2"
     inkscape:pageopacity="0.0"
     inkscape:pagecheckerboard="0"
     inkscape:deskcolor="#d1d1d1"
     showgrid="false"
     inkscape:zoom="0.44225145"
     inkscape:cx="219.33224"
     inkscape:cy="176.37025"
     inkscape:window-width="1368"
     inkscape:window-height="842"
     inkscape:window-x="-6"
     inkscape:window-y="-6"
     inkscape:window-maximized="1"
     inkscape:current-layer="g149" />
  <defs
     id="defs105">
    <path
       id="aj28a0fd1a"
       d="M 1.738,0.156 3.927,2.323 2.347,3.919 0.101,1.81 Z" />
    <path
       id="fdje57jgic"
       d="M 2.201,0.066 3.855,1.703 1.69,3.894 0.093,2.311 Z" />
    <path
       id="6bg72xwlze"
       d="M 2.398,0.044 3.994,1.624 1.886,3.869 0.232,2.232 Z" />
    <path
       id="eaqjnja8wg"
       d="M 1.736,0.023 3.981,2.132 2.344,3.786 0.156,1.619 Z" />
  </defs>
  <g
     fill="none"
     fill-rule="evenodd"
     id="g149"
     transform="translate(-2.9304427e-4,-1.6465461e-4)">
    <path
       style="fill:#000000;stroke-width:0.499924"
       d="m 19.246798,50.155945 c -0.187846,-0.154155 -0.08657,-0.305476 0.219734,-0.328304 0.182881,-0.01363 0.240676,0.0057 0.289362,0.09664 0.04904,0.09162 0.03888,0.135634 -0.05236,0.226873 -0.142252,0.142251 -0.287373,0.143773 -0.456735,0.0048 z m 2.696535,0.01 c -0.231531,-0.187483 0.05563,-0.465329 0.36095,-0.349245 0.17538,0.06668 0.182985,0.24326 0.01553,0.360552 -0.159482,0.111705 -0.227072,0.109675 -0.376478,-0.01131 z m 1.464576,0.01131 c -0.175604,-0.122998 -0.1571,-0.277458 0.04318,-0.360415 0.141237,-0.0585 0.18956,-0.05497 0.307767,0.02248 0.07712,0.05053 0.140225,0.127642 0.140225,0.171353 0,0.08341 -0.206584,0.253692 -0.307768,0.253692 -0.03247,0 -0.114999,-0.0392 -0.183401,-0.08711 z m 1.431089,0.04888 c -0.125587,-0.03284 -0.183371,-0.225711 -0.09833,-0.328183 0.09401,-0.113278 0.424024,-0.105837 0.468693,0.01057 0.04111,0.107136 -0.0093,0.299884 -0.07841,0.299884 -0.02619,0 -0.08115,0.0096 -0.122134,0.02133 -0.04099,0.01173 -0.117407,0.01011 -0.16982,-0.0036 z m -11.401661,-0.09884 c -0.147277,-0.177458 0.169386,-0.339644 0.389356,-0.199417 0.06478,0.04129 0.06988,0.07622 0.02234,0.153026 -0.08036,0.129824 -0.320033,0.156831 -0.41169,0.04639 z m 1.564467,-0.0028 c -0.09332,-0.112443 0.01887,-0.25181 0.202704,-0.25181 0.103021,0 0.133042,0.03022 0.133042,0.133908 0,0.193398 -0.211461,0.267656 -0.335746,0.117902 z m 1.346754,-0.02094 c -0.06789,-0.12685 0.07849,-0.286831 0.262439,-0.286831 0.113396,0 0.293369,0.132899 0.293369,0.216636 0,0.185883 -0.462624,0.24431 -0.555808,0.07019 z m 1.39128,0.01625 c -0.11288,-0.136012 0.0049,-0.275098 0.233056,-0.275098 0.137422,0 0.194274,0.02745 0.208364,0.100614 0.04404,0.228663 -0.287646,0.35977 -0.44142,0.174484 z m 2.783125,0.05132 c -0.07989,-0.07989 -0.03238,-0.29714 0.07789,-0.356156 0.140701,-0.0753 0.440489,-0.01754 0.482926,0.09305 0.0495,0.128986 -0.147748,0.300407 -0.34566,0.300407 -0.09782,0 -0.19464,-0.01679 -0.215158,-0.0373 z m 5.560692,-0.04395 c -0.111773,-0.13468 -0.01772,-0.310453 0.166114,-0.310453 0.191386,0 0.246054,0.06984 0.199585,0.25499 -0.03943,0.157094 -0.254306,0.189683 -0.365699,0.05546 z m 1.242831,0.04419 c -0.103273,-0.04167 -0.08495,-0.231078 0.02798,-0.289156 0.19067,-0.09806 0.381174,0.051 0.287904,0.225274 -0.05234,0.09781 -0.171892,0.121984 -0.315883,0.06388 z m 1.284228,-0.03009 c -0.105977,-0.105978 -0.079,-0.209638 0.07252,-0.278675 0.1151,-0.05244 0.159076,-0.04607 0.250009,0.03622 0.08507,0.07698 0.09749,0.123881 0.05422,0.20473 -0.06323,0.118152 -0.2751,0.139366 -0.376743,0.03773 z m -16.619972,-0.08671 c 0.01037,-0.05386 0.06853,-0.09793 0.129241,-0.09793 0.06071,0 0.118869,0.04407 0.129242,0.09793 0.01413,0.07335 -0.01831,0.09793 -0.129242,0.09793 -0.110927,0 -0.143367,-0.02458 -0.129241,-0.09793 z m 18.175596,-0.01399 c 0,-0.08428 0.02922,-0.114495 0.09793,-0.101263 0.05386,0.01037 0.09793,0.05594 0.09793,0.101263 0,0.04532 -0.04407,0.09089 -0.09793,0.101262 -0.06871,0.01323 -0.09793,-0.01698 -0.09793,-0.101262 z m 1.313117,0.0529 c -0.04745,-0.07677 0.07694,-0.171126 0.197741,-0.149991 0.04616,0.0081 0.08394,0.05211 0.08394,0.09786 0,0.101448 -0.225415,0.14317 -0.281678,0.05213 z m -10.22786,-0.593256 c -0.281985,-0.147747 -0.13343,-0.466934 0.21732,-0.466934 0.253296,0 0.44374,0.178768 0.359041,0.337029 -0.03256,0.06085 -0.06478,0.110633 -0.0716,0.110633 -0.0068,0 -0.08933,0.02207 -0.183375,0.04904 -0.12055,0.03457 -0.215348,0.02579 -0.321387,-0.02977 z m -5.620267,-0.0472 c -0.212115,-0.09166 -0.232571,-0.209997 -0.0575,-0.332624 0.148346,-0.103905 0.268476,-0.109688 0.460557,-0.02217 0.375241,0.170972 -0.02109,0.519847 -0.403061,0.354794 z m 1.462684,0.02907 c -0.182886,-0.0739 -0.217364,-0.235066 -0.07496,-0.350382 0.06685,-0.05413 0.163508,-0.09842 0.214804,-0.09842 0.128282,0 0.341998,0.157357 0.341998,0.25181 0,0.08308 -0.210999,0.254138 -0.306229,0.248263 -0.03163,-0.002 -0.110651,-0.02503 -0.175617,-0.05127 z m 1.301906,-0.04751 c -0.187172,-0.206822 -0.04269,-0.396437 0.30441,-0.399507 0.194004,-0.0017 0.386387,0.127615 0.386387,0.259752 0,0.221699 -0.521212,0.327145 -0.690797,0.139755 z m 1.387305,-0.01286 c -0.125686,-0.138881 -0.06372,-0.276591 0.160389,-0.356469 0.16761,-0.05974 0.413515,0.0275 0.466466,0.165492 0.09777,0.254784 -0.424982,0.414044 -0.626855,0.190977 z m 2.814838,0.05475 c -0.131474,-0.07658 -0.125153,-0.312755 0.01031,-0.385253 0.292221,-0.156392 0.694755,0.03211 0.56927,0.266581 -0.09572,0.17886 -0.377268,0.236508 -0.579581,0.118672 z m 1.369425,-0.02667 c -0.0684,-0.04791 -0.124367,-0.11955 -0.124367,-0.1592 0,-0.243639 0.564482,-0.356389 0.751217,-0.150049 0.248345,0.274419 -0.294341,0.542147 -0.62685,0.309249 z m 1.442449,0.01428 c -0.198674,-0.09995 -0.190724,-0.326288 0.01399,-0.398282 0.204622,-0.07196 0.456385,0.01718 0.47834,0.169362 0.02991,0.207322 -0.263794,0.343887 -0.49233,0.22892 z m 1.217079,0.01238 c -0.20698,-0.120555 -0.07718,-0.387222 0.188478,-0.387222 0.328732,0 0.43511,0.166533 0.226799,0.355053 -0.115495,0.104521 -0.270447,0.116525 -0.415277,0.03217 z m 1.22169,-0.01321 c -0.138939,-0.101595 -0.09112,-0.273928 0.101646,-0.366319 0.139477,-0.06685 0.185849,-0.06517 0.349051,0.01266 0.246044,0.11733 0.240625,0.226865 -0.01796,0.362971 -0.160676,0.08457 -0.3087,0.08139 -0.43274,-0.0093 z M 9.585811,49.418439 c -0.0681,-0.02519 -0.123818,-0.07935 -0.123818,-0.120352 0,-0.194575 0.316124,-0.283403 0.44707,-0.125622 0.144347,0.173928 -0.07232,0.338799 -0.323252,0.245974 z m 1.547123,-0.0458 c -0.124539,-0.102103 -0.126649,-0.113854 -0.03684,-0.205179 0.05239,-0.05328 0.173203,-0.09687 0.268464,-0.09687 0.09526,0 0.21607,0.04359 0.268464,0.09687 0.08981,0.09133 0.0877,0.103076 -0.03684,0.205179 -0.07266,0.05957 -0.176886,0.108305 -0.231621,0.108305 -0.05473,0 -0.158963,-0.04874 -0.23162,-0.108305 z m 1.406148,0.0072 c -0.117337,-0.09501 -0.119164,-0.106868 -0.03018,-0.195852 0.119611,-0.11961 0.494894,-0.125787 0.591213,-0.0097 0.05772,0.06955 0.05231,0.105124 -0.0298,0.195852 -0.125163,0.138303 -0.36698,0.142732 -0.531233,0.0097 z m 1.55341,0.04069 c -0.133375,-0.07768 -0.123,-0.19544 0.02644,-0.300112 0.164333,-0.115104 0.282759,-0.109894 0.442514,0.01947 0.129711,0.105033 0.13008,0.108277 0.02551,0.223831 -0.113153,0.125034 -0.333804,0.150386 -0.494459,0.05681 z m 15.154155,-0.01394 c -0.162432,-0.118773 -0.02627,-0.317326 0.217612,-0.317326 0.36224,0 0.465379,0.116849 0.264001,0.299094 -0.123356,0.111637 -0.342529,0.119934 -0.481613,0.01823 z m 1.364561,-0.02857 -0.127106,-0.102924 0.120907,-0.120907 c 0.142887,-0.142886 0.392375,-0.157019 0.627304,-0.03553 0.1976,0.102183 0.206064,0.159373 0.04073,0.275178 -0.169076,0.118426 -0.505996,0.110375 -0.661833,-0.01581 z m -22.4623945,-0.006 c -0.0492,-0.07961 0.01354,-0.170827 0.117495,-0.170827 0.04903,0 0.07711,0.03931 0.06664,0.09329 -0.0218,0.112389 -0.133525,0.159436 -0.18414,0.07754 z m 23.9620545,-0.0074 c -0.14746,-0.08589 -0.118112,-0.19741 0.07276,-0.27647 0.278983,-0.115559 0.561351,0.08611 0.377703,0.269761 -0.08133,0.08133 -0.316328,0.08483 -0.450459,0.0067 z m 1.667304,-0.03699 c -0.04067,-0.105993 0.143017,-0.294268 0.287104,-0.294268 0.244403,0 0.408955,0.281153 0.209376,0.357739 -0.184521,0.07081 -0.458388,0.03579 -0.49648,-0.06347 z m 1.648189,-0.01448 c 0,-0.07461 0.0373,-0.111916 0.111915,-0.111916 0.07461,0 0.111916,0.0373 0.111916,0.111916 0,0.07461 -0.0373,0.111915 -0.111916,0.111915 -0.07461,0 -0.111915,-0.0373 -0.111915,-0.111915 z m -28.7062943,-0.0033 c 0,-0.0326 0.02518,-0.0437 0.05596,-0.02468 0.03078,0.01902 0.05596,0.04569 0.05596,0.05926 0,0.01357 -0.02518,0.02468 -0.05596,0.02468 -0.03077,0 -0.05596,-0.02667 -0.05596,-0.05926 z m 30.2731103,0.0033 c 0,-0.03078 0.02518,-0.05596 0.05596,-0.05596 0.03078,0 0.05596,0.02518 0.05596,0.05596 0,0.03077 -0.02518,0.05596 -0.05596,0.05596 -0.03077,0 -0.05596,-0.02518 -0.05596,-0.05596 z M 20.553088,48.714466 C 20.323284,48.603168 20.28,48.471764 20.432475,48.348297 c 0.168235,-0.136228 0.526217,-0.129002 0.668718,0.0135 0.132429,0.132429 0.139117,0.187551 0.0334,0.275287 -0.158318,0.131392 -0.40281,0.163927 -0.581507,0.07738 z m 2.772423,0.0065 c -0.08464,-0.04565 -0.153884,-0.128659 -0.153884,-0.184459 0,-0.266176 0.460284,-0.385967 0.671492,-0.174759 0.14376,0.14376 0.141008,0.202904 -0.01399,0.300651 -0.20705,0.130573 -0.3412,0.146173 -0.503619,0.05857 z m -9.93373,-0.02567 c -0.298598,-0.119929 -0.16881,-0.411885 0.183102,-0.411885 0.35722,0 0.464441,0.26878 0.162162,0.406507 -0.161206,0.07345 -0.175231,0.07367 -0.345264,0.0054 z m 1.421114,-0.02683 c -0.12751,-0.127511 -0.09622,-0.255743 0.08757,-0.358904 0.271157,-0.152196 0.686141,0.106902 0.488219,0.304824 -0.137901,0.137901 -0.461567,0.168301 -0.575789,0.05408 z m 1.461947,0.02455 c -0.221256,-0.12887 -0.04715,-0.443179 0.245496,-0.443179 0.242799,0 0.384028,0.09384 0.384028,0.255163 0,0.210694 -0.3904,0.327293 -0.629524,0.188016 z m 1.426921,0.0027 c -0.262796,-0.10563 -0.05996,-0.445917 0.265799,-0.445917 0.169932,0 0.391704,0.142567 0.391704,0.25181 0,0.194949 -0.377874,0.306505 -0.657503,0.194107 z m 1.397404,-0.0294 c -0.0684,-0.04791 -0.124367,-0.122025 -0.124367,-0.1647 0,-0.113364 0.224229,-0.251809 0.407834,-0.251809 0.334852,0 0.503338,0.207982 0.318347,0.392973 -0.133832,0.133832 -0.427924,0.145333 -0.601814,0.02354 z m 2.897952,0.0039 c -0.105915,-0.127619 -0.02302,-0.356693 0.144269,-0.39868 0.169626,-0.04257 0.403326,0.05138 0.453585,0.182354 0.0827,0.215508 -0.441206,0.405076 -0.597854,0.216326 z m 2.727334,0.02277 c -0.225448,-0.131312 -0.02827,-0.443179 0.280198,-0.443179 0.181357,0 0.349326,0.121475 0.349326,0.252633 0,0.192064 -0.412534,0.316931 -0.629524,0.190546 z m 1.225752,-0.04189 c -0.110724,-0.122349 -0.117597,-0.177456 -0.02213,-0.177456 0.03876,0 0.101928,-0.05036 0.140369,-0.111915 0.0883,-0.141385 0.246965,-0.143368 0.372498,-0.0046 0.07498,0.08285 0.08367,0.132289 0.0382,0.217247 -0.107184,0.200275 -0.381183,0.240048 -0.528939,0.07678 z m 1.317525,0.03518 c -0.110738,-0.110738 -0.07755,-0.300079 0.06608,-0.376944 0.275776,-0.14759 0.539638,0.114248 0.338785,0.336188 -0.110208,0.121779 -0.3043,0.141318 -0.404862,0.04075 z m 1.367096,-0.03667 c -0.168693,-0.186403 0.03854,-0.391332 0.337986,-0.334233 0.140659,0.02682 0.168207,0.271967 0.04101,0.364973 -0.139106,0.101718 -0.268634,0.09121 -0.378999,-0.03074 z m 1.405607,0.04338 c -0.157122,-0.09154 -0.124088,-0.311217 0.05625,-0.374083 0.331562,-0.115583 0.552362,0.157348 0.281037,0.347391 -0.143876,0.100775 -0.202144,0.105382 -0.337285,0.02667 z m 1.513488,0.02237 c -0.15585,-0.04102 -0.183931,-0.239174 -0.05252,-0.370586 0.09908,-0.09908 0.146161,-0.10819 0.327615,-0.06337 0.157996,0.03902 0.216491,0.08467 0.229937,0.179411 0.01421,0.100113 -0.02399,0.144631 -0.180065,0.209842 -0.108954,0.04552 -0.205203,0.07985 -0.213886,0.07628 -0.0087,-0.0035 -0.05867,-0.01778 -0.111083,-0.03158 z M 10.374633,48.605997 c -0.08805,-0.229451 0.325968,-0.409416 0.489254,-0.212669 0.06738,0.08118 0.06055,0.106817 -0.05293,0.19871 -0.160306,0.129807 -0.389056,0.137126 -0.43632,0.01396 z m 1.463596,0.03241 c -0.0201,-0.03252 -0.02186,-0.117651 -0.0039,-0.189165 0.06438,-0.256525 0.537478,-0.216845 0.537478,0.04508 0,0.07441 -0.03983,0.150577 -0.08851,0.169258 -0.141334,0.05423 -0.405198,0.03931 -0.44505,-0.02517 z m 21.099514,-0.0313 c -0.117252,-0.117252 -0.08677,-0.199036 0.109884,-0.294805 0.194357,-0.09465 0.437387,-0.02664 0.467724,0.130886 0.04305,0.223527 -0.393977,0.347551 -0.577608,0.163919 z M 18.390874,47.918142 c -0.06238,-0.06893 -0.08436,-0.149782 -0.06086,-0.223831 0.04993,-0.157319 0.416997,-0.162965 0.55673,-0.0086 0.09255,0.10227 0.09164,0.112889 -0.01931,0.223831 -0.145804,0.145804 -0.349056,0.149456 -0.476563,0.0086 z m -7.227954,-0.01998 c -0.216418,-0.124969 0.03531,-0.382778 0.257592,-0.263816 0.141926,0.07596 0.143607,0.202932 0.0037,0.277819 -0.129743,0.06944 -0.115446,0.0702 -0.261271,-0.014 z m 2.957551,0.03487 c -0.107355,-0.04332 -0.08303,-0.231793 0.0383,-0.296726 0.130479,-0.06983 0.395367,0.01416 0.395367,0.125357 0,0.166758 -0.224876,0.25562 -0.433672,0.171369 z m 1.470492,-0.03878 c -0.134838,-0.0986 -0.07827,-0.24555 0.113007,-0.293557 0.200491,-0.05032 0.418009,0.149385 0.307605,0.282414 -0.08895,0.107182 -0.282267,0.112303 -0.420612,0.01114 z m 1.380552,0.0087 c -0.170342,-0.170342 0.04148,-0.365585 0.292912,-0.26999 0.229129,0.08711 0.148849,0.337139 -0.108252,0.337139 -0.06463,0 -0.147728,-0.03021 -0.18466,-0.06715 z m 2.925405,-0.01073 c -0.09194,-0.06723 -0.09597,-0.09057 -0.02947,-0.170703 0.102308,-0.123272 0.359101,-0.09261 0.38542,0.04603 0.03499,0.184333 -0.174168,0.257595 -0.355945,0.124676 z m 2.864351,0.04057 c -0.07648,-0.07648 -0.03358,-0.236123 0.0725,-0.269792 0.111439,-0.03537 0.337859,0.05175 0.337859,0.13 0,0.133947 -0.310446,0.239702 -0.410356,0.139792 z m 1.381599,-0.04734 c -0.04878,-0.127118 0.09114,-0.258997 0.254558,-0.239937 0.160867,0.01876 0.231418,0.197286 0.1087,0.275055 -0.121145,0.07677 -0.327995,0.05678 -0.363258,-0.03512 z m 1.30437,0.04734 c -0.07539,-0.07539 -0.03418,-0.240219 0.07461,-0.298442 0.213903,-0.114477 0.432787,0.104407 0.268596,0.268597 -0.07238,0.07238 -0.282406,0.09064 -0.343207,0.02985 z m 1.255608,-0.03954 c -0.169346,-0.20405 0.238652,-0.414748 0.443733,-0.229152 0.08157,0.07382 0.09328,0.12069 0.05023,0.201123 -0.06734,0.125836 -0.397255,0.144555 -0.493964,0.02803 z m 2.582157,0.03978 c -0.120925,-0.04879 -0.07721,-0.241818 0.06995,-0.308868 0.166142,-0.0757 0.419683,0.01305 0.419683,0.146907 0,0.147522 -0.288726,0.243028 -0.48963,0.161961 z m 1.496868,-0.04688 c -0.09912,-0.119428 0.02308,-0.25181 0.232439,-0.25181 0.202073,0 0.277737,0.151641 0.129683,0.259902 -0.135836,0.09933 -0.275565,0.0962 -0.362122,-0.0081 z m 1.460786,0.0071 c -0.03507,-0.04226 -0.04806,-0.117807 -0.02885,-0.167874 0.04606,-0.120018 0.405099,-0.125102 0.450657,-0.0064 0.076,0.19806 -0.280001,0.345127 -0.421813,0.174254 z m -22.70664,-0.06869 c -0.0377,-0.09826 0.06646,-0.188007 0.219752,-0.189348 0.123834,-0.0011 0.131488,0.198121 0.0094,0.244966 -0.139448,0.05351 -0.192201,0.04071 -0.229165,-0.05562 z m 3.024911,0.0083 c -0.04496,-0.117163 0.02262,-0.198662 0.163901,-0.197674 0.176766,0.0012 0.271779,0.07771 0.230426,0.185479 -0.04495,0.117139 -0.350431,0.126586 -0.394327,0.01219 z m 8.876009,-0.02694 c 0,-0.09179 0.03546,-0.115632 0.171976,-0.115632 0.133556,0 0.167827,0.02188 0.153405,0.09793 -0.0112,0.05906 -0.07945,0.104953 -0.171976,0.115632 -0.123456,0.01425 -0.153405,-0.0048 -0.153405,-0.09793 z m 6.642673,0.07325 c -0.09745,-0.09745 -0.03459,-0.195736 0.114218,-0.178613 0.09161,0.01054 0.153884,0.05167 0.153884,0.101642 0,0.08798 -0.199746,0.145327 -0.268102,0.07697 z m 5.856122,-0.04901 c -0.05087,-0.132566 0.06042,-0.215818 0.2312,-0.172955 0.09949,0.02497 0.141773,0.06839 0.129524,0.133 -0.0248,0.130825 -0.313579,0.162811 -0.360724,0.03995 z M 20.773892,47.39271 c -0.07332,-0.08834 0.06288,-0.317943 0.18861,-0.317943 0.102685,0 0.203681,0.191137 0.160482,0.303713 -0.04103,0.106923 -0.264601,0.116036 -0.349092,0.01423 z m -2.947323,-0.207806 c -0.02173,-0.03516 -0.01318,-0.09026 0.019,-0.122443 0.0752,-0.0752 0.25053,-0.0096 0.219934,0.08228 -0.03115,0.09354 -0.189493,0.12016 -0.238935,0.04016 z m 5.624847,0.0018 c 0,-0.03078 0.03777,-0.05596 0.08394,-0.05596 0.04616,0 0.08394,0.02518 0.08394,0.05596 0,0.03077 -0.03777,0.05596 -0.08394,0.05596 -0.04616,0 -0.08394,-0.02518 -0.08394,-0.05596 z M 4.8454847,43.882742 c -0.246214,-0.01905 -0.560976,-0.06639 -0.699471,-0.105215 -0.840519,-0.235612 -1.646491,-0.916959 -2.057023,-1.738952 -0.438506,-0.878004 -0.408531,-0.103073 -0.391964,-10.132972 l 0.01483,-8.97658 0.150602,-0.425075 c 0.452875,-1.278242 1.326882,-2.074757 2.45143,-2.234081 0.252833,-0.03582 1.454149,-0.05731 3.021715,-0.05405 1.4311178,0.003 3.6165413,0.004 4.8564963,0.0023 l 2.254463,-0.0031 0.219592,-0.209842 c 0.197635,-0.188859 0.661969,-0.912649 1.17568,-1.832614 0.657957,-1.178285 1.134908,-1.742093 1.699109,-2.00853 0.523312,-0.247128 0.731166,-0.257756 5.040629,-0.257756 3.80175,0 4.11603,0.0073 4.461725,0.103122 0.435495,0.120759 0.852836,0.373621 1.138475,0.68979 0.330001,0.365272 1.089245,1.592161 1.089245,1.760149 0,0.02128 -0.464823,0.02251 -1.032941,0.0028 -0.568116,-0.01977 -1.071736,-0.02106 -1.119153,-0.0029 -0.07231,0.02775 -0.08621,0.167519 -0.08621,0.866463 v 0.833378 h 0.499043 c 0.274473,0 0.538873,0.01528 0.587555,0.03396 0.05736,0.02201 0.08851,0.0033 0.08851,-0.05316 0,-0.06682 0.075,-0.09104 0.321757,-0.103913 l 0.321757,-0.01678 0.01617,-0.48963 0.01617,-0.489629 h 0.357061 0.357061 l 0.08842,0.38876 c 0.05525,0.242905 0.08842,0.652295 0.08842,1.091175 v 0.702414 h -0.671492 c -0.634187,0 -0.671492,-0.0062 -0.671492,-0.111915 0,-0.06155 -0.03608,-0.111915 -0.08017,-0.111915 -0.04409,0 -0.09615,0.05036 -0.115686,0.111915 -0.03392,0.106858 -0.08467,0.111915 -1.122925,0.111915 H 26.025468 V 20.865917 20.50956 l -0.230722,-0.03095 c -0.342657,-0.04596 -0.384813,-0.01211 -0.384813,0.308981 v 0.280796 l -0.181862,-0.03746 c -0.701245,-0.144461 -1.409129,-0.21456 -2.19634,-0.217495 -0.952182,-0.0035 -1.467098,0.05649 -2.321934,0.270719 -0.33771,0.08463 -0.55077,0.113666 -0.584758,0.07968 -0.08376,-0.08376 -0.183382,-0.06288 -0.21217,0.04446 -0.01678,0.06257 -0.245282,0.188835 -0.632931,0.349736 -2.256478,0.936597 -4.023765,2.644767 -5.123644,4.952256 -1.06071,2.225314 -1.163844,5.039317 -0.275843,7.526309 0.916228,2.566042 3.167726,4.901843 5.667712,5.879928 0.269185,0.105315 0.489519,0.223438 0.48963,0.262495 1.32e-4,0.04627 0.04534,0.05968 0.129771,0.03849 0.07126,-0.01789 0.320114,0.01739 0.553001,0.07839 0.894154,0.234201 1.565055,0.302272 2.699514,0.273898 0.879861,-0.02201 1.186779,-0.05293 1.753392,-0.176645 1.892673,-0.413274 3.401896,-1.215626 4.788198,-2.545576 0.353896,-0.33951 1.052519,-1.145227 1.266612,-1.460774 0.07308,-0.107718 0.140428,-0.205735 0.149651,-0.217815 0.0092,-0.01208 0.05576,0.01039 0.10341,0.04994 0.09534,0.07912 0.172965,0.04282 0.113652,-0.05315 -0.0206,-0.03333 -0.06089,-0.04611 -0.08954,-0.0284 -0.08459,0.05228 -0.06063,-0.01907 0.08259,-0.245947 0.508126,-0.804923 1.119834,-2.373284 1.26288,-3.237903 l 0.0668,-0.403788 0.568832,-0.01589 0.568832,-0.0159 0.01517,-1.105165 0.01517,-1.105164 h 1.034034 1.034034 v 0.412688 0.412688 l -0.174868,0.03497 c -0.09618,0.01924 -0.310215,0.03498 -0.47564,0.03498 h -0.300774 l 5e-6,0.71346 6e-6,0.713461 -0.559583,-0.004 -0.559582,-0.004 v 0.745417 0.745418 h 0.750766 c 0.510783,0 0.75754,0.02032 0.771959,0.06358 0.01507,0.04522 0.05681,0.04134 0.144557,-0.01346 0.117825,-0.07358 0.123364,-0.112924 0.123364,-0.876176 v -0.799047 l 1.077186,0.0152 1.077185,0.0152 0.01621,0.671493 c 0.0089,0.369321 0.0016,0.730144 -0.01617,0.801829 l -0.03238,0.130337 -0.851176,-0.01842 -0.851176,-0.01842 v 0.671492 0.671493 l 0.860645,0.02798 0.860645,0.02798 0.02647,2.266286 c 0.03118,2.669225 -0.02157,3.655281 -0.227165,4.246464 -0.358001,1.029433 -1.165521,1.807516 -2.196648,2.116572 -0.313455,0.09395 -1.134147,0.0994 -15.327848,0.101779 C 12.04162,43.91626 5.0916757,43.90179 4.8454617,43.88275 Z m 7.2155873,-0.170216 c -0.01802,-0.02915 -0.05661,-0.03826 -0.08576,-0.02025 -0.02915,0.01802 -0.03826,0.05661 -0.02025,0.08576 0.01802,0.02915 0.05661,0.03826 0.08576,0.02025 0.02915,-0.01802 0.03826,-0.05661 0.02025,-0.08576 z m 18.794907,-0.01776 c 0.01657,-0.04317 -9.5e-4,-0.12099 -0.03892,-0.172927 -0.06268,-0.08572 -0.07581,-0.08628 -0.142311,-0.0061 -0.08588,0.103482 -0.04316,0.257576 0.07141,0.257576 0.04384,0 0.09326,-0.03533 0.109828,-0.0785 z m -3.264286,-0.116644 c 0.09086,-0.109485 0.03219,-0.252523 -0.103581,-0.252523 -0.120205,0 -0.189002,0.123836 -0.139894,0.251811 0.04116,0.107256 0.154776,0.107589 0.243475,6.99e-4 z m 1.623365,-0.196565 c 0,-0.118019 -0.08141,-0.150584 -0.139895,-0.05596 -0.0408,0.06602 0.01212,0.167874 0.08724,0.167874 0.02896,0 0.05266,-0.05036 0.05266,-0.111916 z m -13.463095,-0.31421 c 0.04028,-0.104961 -0.131073,-0.17378 -0.191052,-0.07673 -0.02482,0.04016 -0.03279,0.105197 -0.0177,0.144515 0.03349,0.08728 0.165728,0.04434 0.208752,-0.06778 z m 16.307051,0.0158 c 0.01047,-0.05398 -0.01762,-0.09329 -0.06665,-0.09329 -0.103955,0 -0.166696,0.09122 -0.117495,0.170826 0.05062,0.0819 0.162343,0.03485 0.184139,-0.07754 z m -22.403559,0.02249 c 0.04138,-0.06696 -0.06388,-0.133304 -0.138417,-0.08724 -0.06258,0.03868 -0.0215,0.13933 0.05687,0.13933 0.02715,0 0.06384,-0.02344 0.08155,-0.05209 z m 21.283768,-0.113516 c 0.06734,-0.09108 0.122438,-0.184711 0.122438,-0.20806 0,-0.04898 -0.279013,-0.297825 -0.333926,-0.297825 -0.0202,0 -0.09431,0.07787 -0.164675,0.173054 l -0.127944,0.173054 0.155869,0.162692 c 0.08573,0.08948 0.171603,0.162692 0.190834,0.162692 0.01923,0 0.09006,-0.07452 0.157404,-0.165607 z m 4.05616,0.07431 c 0.05273,-0.05273 -0.06973,-0.252855 -0.131407,-0.214738 -0.08069,0.04987 -0.06351,0.250075 0.02146,0.250075 0.04103,0 0.09051,-0.0159 0.109947,-0.03533 z M 7.6153895,42.905919 c 0,-0.04616 -0.03777,-0.08394 -0.08394,-0.08394 -0.04616,0 -0.08394,0.03777 -0.08394,0.08394 0,0.04616 0.03777,0.08394 0.08394,0.08394 0.04616,0 0.08394,-0.03777 0.08394,-0.08394 z M 18.135435,42.760037 c 0,-0.05826 -0.03777,-0.105928 -0.08394,-0.105928 -0.05194,0 -0.08394,0.05265 -0.08394,0.138138 0,0.0998 0.0233,0.129199 0.08394,0.105928 0.04616,-0.01772 0.08394,-0.07988 0.08394,-0.138138 z m 11.807072,-0.105928 c 0,-0.03078 -0.02518,-0.05596 -0.05596,-0.05596 -0.03078,0 -0.05596,0.02518 -0.05596,0.05596 0,0.03077 0.02518,0.05596 0.05596,0.05596 0.03077,0 0.05596,-0.02518 0.05596,-0.05596 z M 8.5551445,42.45517 c 0.009,-0.06325 -0.03455,-0.161155 -0.09688,-0.217564 -0.09283,-0.08401 -0.128704,-0.0898 -0.198315,-0.03203 -0.08796,0.073 -0.115052,0.287898 -0.04511,0.357838 0.08391,0.08391 0.323726,0.0076 0.340304,-0.108245 z M 25.046209,42.37432 c 0,-0.183578 -0.22404,-0.231604 -0.278593,-0.05972 -0.04899,0.154347 0.01171,0.237647 0.157969,0.216804 0.08678,-0.01237 0.120624,-0.05644 0.120624,-0.157083 z m 1.128341,0.08017 c 0.05075,-0.132247 -0.06832,-0.226378 -0.174688,-0.138101 -0.04747,0.03939 -0.08631,0.106317 -0.08631,0.148714 0,0.106358 0.219536,0.09743 0.260996,-0.01061 z M 7.4933765,42.327969 c 0.0133,-0.09036 -0.01097,-0.121522 -0.09462,-0.121522 -0.1472748,0 -0.2023938,0.0955 -0.1155288,0.200167 0.09087,0.109488 0.1878078,0.07321 0.2101518,-0.07865 z m 16.1147205,0.09112 c 0.08772,-0.08772 0.0861,-0.252477 -0.0028,-0.284352 -0.10901,-0.03909 -0.265799,0.06489 -0.265799,0.176271 0,0.177845 0.141781,0.234897 0.268597,0.108081 z m -2.227116,-0.04477 c 0,-0.03077 -0.02518,-0.05596 -0.05596,-0.05596 -0.03078,0 -0.05596,0.02518 -0.05596,0.05596 0,0.03078 0.02518,0.05596 0.05596,0.05596 0.03077,0 0.05596,-0.02518 0.05596,-0.05596 z M 5.8146467,42.219863 c 0.01344,-0.09418 -0.01009,-0.125333 -0.09462,-0.125333 -0.133935,0 -0.197507,0.08464 -0.152216,0.202668 0.04787,0.124737 0.225971,0.06894 0.24684,-0.07734 z m 6.2214003,0.0099 c 0,-0.04873 -0.0299,-0.07863 -0.06645,-0.06645 -0.103758,0.03458 -0.120967,0.155049 -0.02215,0.155049 0.04873,0 0.0886,-0.03987 0.0886,-0.0886 z m 5.249925,-0.125625 c 0.01151,-0.07823 -0.01174,-0.121522 -0.06528,-0.121522 -0.0938,0 -0.145287,0.103716 -0.105333,0.212207 0.03957,0.107465 0.150105,0.04872 0.170617,-0.09068 z m 13.486015,-0.02823 c 0.0122,-0.0629 -0.0197,-0.09329 -0.09793,-0.09329 -0.06381,0 -0.116019,0.03357 -0.116019,0.07461 0,0.171384 0.18126,0.187209 0.213945,0.01868 z m 0.597442,0.01863 c 0,-0.04532 -0.04407,-0.09089 -0.09793,-0.101263 -0.06871,-0.01323 -0.09793,0.01698 -0.09793,0.101263 0,0.08428 0.02922,0.114495 0.09793,0.101263 0.05386,-0.01037 0.09793,-0.05594 0.09793,-0.101263 z m 0.632224,-0.0894 c 0.0204,-0.142059 -0.109592,-0.260861 -0.233428,-0.213341 -0.10692,0.04103 -0.122578,0.280399 -0.02108,0.322288 0.130309,0.05378 0.237749,0.0078 0.25451,-0.108947 z m -16.53329,-0.03223 c 0.06835,-0.108351 0.01145,-0.270075 -0.09501,-0.270075 -0.08692,0 -0.172347,0.250624 -0.116322,0.341274 0.04472,0.07236 0.141302,0.03982 0.211333,-0.0712 z M 2.9709017,41.954648 c 0,-0.04616 -0.03777,-0.08394 -0.08394,-0.08394 -0.04616,0 -0.08394,0.03777 -0.08394,0.08394 0,0.04616 0.03777,0.08394 0.08394,0.08394 0.04616,0 0.08394,-0.03777 0.08394,-0.08394 z m 9.8205743,-0.195852 c 0,-0.211283 -0.217551,-0.194717 -0.241965,0.01842 -0.01577,0.137667 -0.0012,0.155915 0.111915,0.139894 0.0965,-0.01367 0.13005,-0.05451 0.13005,-0.158319 z m 15.808047,0.08724 c 0,-0.109405 -0.108467,-0.169028 -0.179065,-0.09843 -0.03157,0.03157 -0.04048,0.08477 -0.0198,0.118231 0.05485,0.08875 0.198866,0.07441 0.198866,-0.0198 z m 0.456031,-0.09261 0.269978,-0.173244 0.237957,0.174996 c 0.256372,0.188538 0.312369,0.158019 0.216205,-0.117836 -0.09564,-0.274361 -0.07496,-0.359919 0.134835,-0.557804 0.107718,-0.101603 0.195852,-0.204373 0.195852,-0.228377 0,-0.02401 -0.128072,-0.04364 -0.284603,-0.04364 h -0.284602 l -0.118207,-0.279789 c -0.06501,-0.153884 -0.135661,-0.279788 -0.156993,-0.279788 -0.02133,0 -0.05581,0.06925 -0.07662,0.153883 -0.07673,0.312101 -0.180832,0.405693 -0.451228,0.405693 -0.137786,0 -0.250519,0.01964 -0.250519,0.04364 0,0.02401 0.08813,0.126774 0.195852,0.228377 0.220925,0.208382 0.229537,0.249224 0.111915,0.530734 -0.15467,0.370177 -0.121794,0.388266 0.260179,0.143154 z m -4.940171,0.02081 c 0.07143,-0.127637 -0.01959,-0.295223 -0.160348,-0.295223 -0.146851,0 -0.254547,0.203333 -0.164905,0.311345 0.09091,0.109545 0.259605,0.101184 0.325253,-0.01612 z m 8.680967,0.01585 c 0,-0.04435 -0.02518,-0.0962 -0.05596,-0.115218 -0.03077,-0.01902 -0.05596,-0.02257 -0.05596,-0.0079 0,0.01469 -0.01528,0.06654 -0.03397,0.115218 -0.02229,0.05808 -0.0031,0.08851 0.05596,0.08851 0.04946,0 0.08992,-0.03628 0.08992,-0.08063 z M 5.5449557,41.670188 c 0,-0.04873 -0.0299,-0.07863 -0.06645,-0.06645 -0.103758,0.03458 -0.120967,0.155049 -0.02215,0.155049 0.04873,0 0.0886,-0.03987 0.0886,-0.0886 z M 36.19848,41.613998 c 0.0092,-0.06425 -0.01904,-0.146464 -0.06271,-0.182705 -0.110755,-0.09192 -0.352329,0.100606 -0.299379,0.238591 0.05447,0.141942 0.34012,0.09785 0.362086,-0.05589 z M 4.8069767,41.520325 c 0.01139,-0.05912 -0.0158,-0.09728 -0.0693,-0.09728 -0.04842,0 -0.08804,0.01053 -0.08804,0.0234 0,0.01287 -0.01626,0.06579 -0.03614,0.11759 -0.0272,0.07089 -0.01006,0.08916 0.0693,0.07388 0.058,-0.01117 0.113878,-0.06409 0.124183,-0.117591 z m 4.2814493,0.04808 c 0.03159,-0.08234 -0.0046,-0.145365 -0.08342,-0.145365 -0.02565,0 -0.04663,0.05036 -0.04663,0.111916 0,0.128306 0.08524,0.15023 0.130052,0.03345 z m 6.789402,-0.08941 c 0.136807,-0.09233 0.260608,-0.167873 0.275114,-0.167873 0.01451,0 0.127069,0.06664 0.250142,0.148083 0.123073,0.08144 0.239079,0.132772 0.257793,0.114059 0.01871,-0.01871 0.0043,-0.152169 -0.03209,-0.296567 -0.06602,-0.262177 -0.06582,-0.262842 0.143064,-0.476757 0.115046,-0.117818 0.192789,-0.230599 0.172762,-0.250626 -0.02003,-0.02003 -0.152021,-0.04507 -0.293319,-0.05565 -0.319047,-0.02389 -0.345308,-0.04023 -0.389738,-0.242518 -0.01973,-0.08985 -0.07126,-0.192727 -0.114503,-0.228615 -0.064,-0.05311 -0.09581,-0.0223 -0.171005,0.165639 -0.108539,0.271264 -0.213687,0.33954 -0.522908,0.33954 -0.125131,0 -0.22751,0.02307 -0.22751,0.05126 0,0.02819 0.103339,0.133101 0.229642,0.233136 0.244259,0.193456 0.241613,0.179374 0.127938,0.680878 -0.04402,0.194204 -0.01159,0.192664 0.294613,-0.01399 z m 7.125926,0.115218 c 0,-0.02896 -0.02518,-0.06822 -0.05596,-0.08724 -0.03077,-0.01902 -0.05596,0.0046 -0.05596,0.05266 0,0.04798 0.02518,0.08724 0.05596,0.08724 0.03078,0 0.05596,-0.0237 0.05596,-0.05266 z m -3.488169,-0.202916 c 0.04664,-0.121538 -0.07176,-0.235834 -0.156511,-0.151086 -0.07163,0.07163 -0.02726,0.238784 0.06339,0.238784 0.03271,0 0.07461,-0.03946 0.09312,-0.0877 z m 12.655165,-0.06644 c 0.02412,-0.169854 -0.147601,-0.235888 -0.249836,-0.09607 -0.123771,0.169267 -0.09434,0.259768 0.07804,0.239934 0.110284,-0.01269 0.158959,-0.05345 0.171797,-0.143861 z m -1.724623,-0.04172 c 0,-0.156484 -0.135595,-0.192805 -0.190047,-0.05091 -0.04247,0.110679 0.0034,0.190803 0.109413,0.190803 0.0487,0 0.08063,-0.0554 0.08063,-0.139895 z M 7.8298365,41.234597 c 0.02585,-0.134231 -0.05917,-0.21638 -0.177111,-0.171123 -0.09423,0.03616 -0.126418,0.19588 -0.05405,0.268244 0.06905,0.06905 0.210618,0.0096 0.231165,-0.09712 z m 5.4829955,-0.161604 c 0.02366,-0.205668 -0.127405,-0.26462 -0.281982,-0.110043 -0.154577,0.154577 -0.09562,0.305638 0.110043,0.281981 0.121295,-0.01395 0.157987,-0.05064 0.171939,-0.171938 z m -1.108912,0.03898 c 0,-0.04798 -0.02518,-0.07168 -0.05596,-0.05266 -0.03077,0.01902 -0.05596,0.05828 -0.05596,0.08724 0,0.02896 0.02518,0.05266 0.05596,0.05266 0.03078,0 0.05596,-0.03926 0.05596,-0.08724 z m 14.493042,0.03458 c 0,-0.06602 -0.109138,-0.136648 -0.149221,-0.09657 -0.04008,0.04008 0.03055,0.149221 0.09656,0.149221 0.02896,0 0.05266,-0.0237 0.05266,-0.05266 z m 5.763642,-0.205141 c 0,-0.151471 -0.117772,-0.177763 -0.223831,-0.04997 -0.05417,0.06527 -0.05478,0.101865 -0.0027,0.164547 0.09364,0.112827 0.226591,0.0456 0.226591,-0.114576 z m -21.152007,0.02986 c 0,-0.1434 -0.18521,-0.127132 -0.213302,0.01874 -0.01293,0.06715 0.0172,0.09728 0.09728,0.09728 0.08008,0 0.116018,-0.03594 0.116018,-0.116018 z m 12.608361,0.03822 c 0.01642,-0.04279 -0.02303,-0.134564 -0.08767,-0.203944 l -0.117523,-0.126146 -0.09939,0.122742 c -0.05466,0.06751 -0.08537,0.159283 -0.06823,0.203944 0.03977,0.103639 0.333321,0.106319 0.372813,0.0034 z m 2.210154,-0.164337 c 0.01268,-0.107101 -0.0077,-0.149568 -0.0717,-0.149568 -0.105966,0 -0.167616,0.131942 -0.119833,0.256463 0.05056,0.131761 0.171258,0.0644 0.191537,-0.106895 z m -22.2709843,0.0043 c -0.0098,-0.06925 -0.05565,-0.125904 -0.101818,-0.125904 -0.04616,0 -0.09198,0.05666 -0.101818,0.125904 -0.01376,0.0969 0.0097,0.125905 0.101818,0.125905 0.09212,0 0.11558,-0.029 0.101818,-0.125905 z M 32.180815,40.747036 c 0,-0.02149 -0.04748,-0.09769 -0.105501,-0.169352 -0.09045,-0.111698 -0.118395,-0.119589 -0.195853,-0.05531 -0.134904,0.111961 -0.114745,0.335178 0.03556,0.393692 0.09234,0.03595 0.144551,0.02516 0.195852,-0.04048 0.03847,-0.04922 0.06995,-0.107072 0.06995,-0.128557 z M 5.1764867,40.871124 c 0.01641,-0.02656 0.14603,-0.08081 0.288042,-0.120575 0.223972,-0.06271 0.298998,-0.05943 0.565935,0.02471 0.169253,0.05335 0.321747,0.08299 0.338874,0.06586 0.01713,-0.01713 -0.01027,-0.139564 -0.06087,-0.27208 -0.1263,-0.330712 -0.117307,-0.373749 0.130855,-0.62625 0.11956,-0.121649 0.205286,-0.24075 0.190503,-0.264669 -0.01478,-0.02392 -0.170496,-0.02884 -0.34603,-0.01094 l -0.319153,0.03255 -0.191153,-0.397405 c -0.105134,-0.218573 -0.209757,-0.397405 -0.232495,-0.397405 -0.02274,0 -0.02983,0.09443 -0.01575,0.209841 0.04077,0.334293 -0.130394,0.556026 -0.466715,0.604598 -0.430104,0.06212 -0.447144,0.09511 -0.159663,0.309144 0.273566,0.203675 0.266331,0.174417 0.168395,0.681052 -0.02652,0.137195 -0.0198,0.209842 0.01941,0.209842 0.03299,0 0.07341,-0.02173 0.08982,-0.04828 z m 21.9868023,-0.20762 c -0.01685,-0.04391 -0.06302,-0.07984 -0.102602,-0.07984 -0.10118,0 -0.15818,0.177946 -0.07372,0.230146 0.09196,0.05683 0.215421,-0.04841 0.176321,-0.150301 z m -17.219827,-0.0087 c -0.05688,-0.05688 -0.103815,0.02876 -0.05714,0.10427 0.03525,0.05704 0.04844,0.05709 0.06739,2.26e-4 0.01296,-0.03888 0.0083,-0.0859 -0.01024,-0.104496 z m 3.817001,-7e-4 c -0.01986,-0.172092 -0.193431,-0.243946 -0.247693,-0.10254 -0.05194,0.135345 0.0178,0.255945 0.14801,0.255945 0.09497,0 0.114008,-0.0293 0.09968,-0.153405 z m -8.8962813,-0.06702 c 0.0127,-0.0868 -0.0052,-0.119867 -0.05596,-0.103149 -0.04106,0.01353 -0.08307,0.08209 -0.09335,0.15236 -0.0127,0.08681 0.0052,0.119867 0.05596,0.103149 0.04106,-0.01353 0.08307,-0.0821 0.09335,-0.15236 z m 3.5905728,0.139824 c 0,-0.01357 -0.02518,-0.04024 -0.05596,-0.05926 -0.03078,-0.01902 -0.05596,-0.0079 -0.05596,0.02468 0,0.0326 0.02518,0.05926 0.05596,0.05926 0.03077,0 0.05596,-0.0111 0.05596,-0.02468 z M 33.483008,40.44378 c 0.125845,-0.107718 0.253549,-0.195851 0.283785,-0.195851 0.03023,0 0.177747,0.07878 0.327801,0.175071 0.150055,0.09629 0.287025,0.160873 0.304379,0.14352 0.01735,-0.01735 -0.01062,-0.158512 -0.06216,-0.313684 -0.106109,-0.319466 -0.08561,-0.375087 0.238554,-0.647455 0.101324,-0.08513 0.168614,-0.170397 0.149534,-0.189478 -0.01908,-0.01908 -0.177409,-0.04742 -0.351842,-0.06298 l -0.317149,-0.02829 -0.122451,-0.307767 c -0.06735,-0.169272 -0.138382,-0.307768 -0.157853,-0.307768 -0.01947,0 -0.09048,0.138162 -0.157794,0.307026 l -0.122392,0.307025 -0.306114,0.04405 c -0.168363,0.02423 -0.327922,0.06586 -0.354575,0.09251 -0.02731,0.02731 0.06647,0.127537 0.214861,0.229629 0.256422,0.176423 0.262463,0.18721 0.230629,0.411847 -0.01798,0.126873 -0.04901,0.299926 -0.06895,0.384562 -0.04733,0.200844 -0.0042,0.194173 0.271738,-0.04197 z m 2.044772,0.01318 c 0.02227,-0.115641 -0.139268,-0.193563 -0.224526,-0.108305 -0.08526,0.08526 -0.0073,0.246796 0.108306,0.224526 0.0536,-0.01032 0.105898,-0.06262 0.11622,-0.116221 z m -4.969738,-0.04115 c 0,-0.07461 -0.0373,-0.111916 -0.111915,-0.111916 -0.07461,0 -0.111915,0.0373 -0.111915,0.111916 0,0.07461 0.0373,0.111915 0.111915,0.111915 0.07461,0 0.111915,-0.0373 0.111915,-0.111915 z M 9.437027,40.41091 c 0.05767,-0.0933 -0.07203,-0.200301 -0.149223,-0.123107 -0.06457,0.06457 -0.02416,0.183941 0.06227,0.183941 0.02715,0 0.06627,-0.02738 0.08695,-0.06083 z M 10.54698,40.3278 c 0.04213,-0.109795 -0.06369,-0.317726 -0.147486,-0.289794 -0.100995,0.03366 -0.174594,0.187691 -0.136776,0.286242 0.04479,0.116729 0.239896,0.119167 0.284262,0.0035 z m 2.629205,0.04335 c 0.01517,-0.02455 0.004,-0.08121 -0.02468,-0.125905 -0.04569,-0.07105 -0.05884,-0.07105 -0.104531,0 -0.05549,0.08628 -0.02967,0.170545 0.05227,0.170545 0.02715,0 0.06177,-0.02009 0.07694,-0.04464 z m 17.102069,-0.127885 c 0,-0.136371 -0.130761,-0.117095 -0.157987,0.02329 -0.01071,0.05522 0.01784,0.09329 0.06995,0.09329 0.05191,0 0.08804,-0.04784 0.08804,-0.116579 z m -1.212933,-0.01785 c 0.03159,-0.08233 -0.0046,-0.145365 -0.08342,-0.145365 -0.02565,0 -0.04663,0.05036 -0.04663,0.111916 0,0.128306 0.08524,0.15023 0.130051,0.03345 z M 8.89192,40.009297 c 0.02227,-0.115642 -0.1392685,-0.193564 -0.2245255,-0.108306 -0.08526,0.08526 -0.0073,0.246796 0.108305,0.224526 0.0536,-0.01032 0.1058985,-0.06262 0.1162205,-0.11622 z m 0.234327,-0.04582 c 0,-0.136372 -0.130761,-0.117096 -0.157987,0.02329 -0.01071,0.05522 0.01784,0.09329 0.06995,0.09329 0.05191,0 0.08804,-0.04784 0.08804,-0.116578 z M 8.0406685,39.82265 c -0.02709,-0.07059 -0.05403,-0.08027 -0.0988,-0.0355 -0.03386,0.03386 -0.04479,0.105228 -0.02431,0.158608 0.02709,0.07059 0.05403,0.08027 0.0988,0.0355 0.03385,-0.03385 0.04479,-0.105228 0.02431,-0.158608 z m -5.4334918,0.08953 c 0.01902,-0.03077 0.0079,-0.05596 -0.02468,-0.05596 -0.03259,0 -0.05926,0.02518 -0.05926,0.05596 0,0.03078 0.0111,0.05596 0.02468,0.05596 0.01357,0 0.04024,-0.02518 0.05926,-0.05596 z m 1.081078,-0.121522 c -0.02636,-0.179148 -0.157776,-0.198335 -0.157776,-0.02304 0,0.09404 0.03069,0.144557 0.08783,0.144557 0.05833,0 0.08182,-0.04082 0.06995,-0.121522 z m 25.9084093,-0.0927 c 0.01187,-0.0807 -0.01162,-0.121521 -0.06995,-0.121521 -0.05713,0 -0.08783,0.05052 -0.08783,0.144557 0,0.175299 0.131415,0.156113 0.157776,-0.02304 z M 9.488565,39.578712 c 0.01825,-0.02952 0.0087,-0.09877 -0.0213,-0.153883 -0.02996,-0.05511 -0.06864,-0.167772 -0.08596,-0.250356 -0.04504,-0.21479 -0.243429,-0.264703 -0.374529,-0.09423 -0.1552745,0.201909 -0.1264495,0.292462 0.133459,0.419253 0.292321,0.142602 0.30708,0.145959 0.348329,0.07922 z m 1.568222,-0.09011 c 0,-0.05857 -0.04407,-0.114973 -0.09793,-0.125345 -0.09848,-0.01897 -0.141771,0.150681 -0.05945,0.232997 0.06611,0.06611 0.157381,0.0037 0.15738,-0.107652 z m 1.584908,0.01325 c 0.01047,-0.05398 -0.01762,-0.09329 -0.06665,-0.09329 -0.103954,0 -0.166695,0.09122 -0.117495,0.170827 0.05062,0.0819 0.162343,0.03485 0.18414,-0.07754 z m 22.504878,-0.0094 c 0,-0.102589 -0.02984,-0.139894 -0.111916,-0.139894 -0.10918,0 -0.158101,0.158992 -0.07461,0.242483 0.08495,0.08495 0.186526,0.02908 0.186526,-0.102589 z m -2.583439,-0.160424 c 0.01093,-0.05678 -0.0078,-0.13095 -0.04172,-0.164833 -0.08538,-0.08538 -0.256108,0.08917 -0.208521,0.213184 0.04597,0.119802 0.224507,0.08531 0.250247,-0.04835 z m -1.59068,-0.06044 0.162601,-0.132946 -0.09528,-0.200788 c -0.102611,-0.216237 -0.201944,-0.26437 -0.201944,-0.09785 0,0.05661 -0.06493,0.132518 -0.14429,0.168676 -0.0826,0.03764 -0.130465,0.0953 -0.111951,0.134887 0.01779,0.03803 0.04788,0.113211 0.06688,0.16707 0.04608,0.130654 0.128593,0.12071 0.323984,-0.03904 z m -19.166073,0.02985 c 0.0951,-0.06022 0.0413,-0.228622 -0.07304,-0.228622 -0.105208,0 -0.16379,0.09403 -0.123689,0.198532 0.03566,0.09292 0.08547,0.100539 0.196732,0.03009 z M 5.3110277,39.115356 c -0.0098,-0.06893 -0.05878,-0.133121 -0.108767,-0.142641 -0.114374,-0.02178 -0.190376,0.158808 -0.09287,0.220676 0.133584,0.08476 0.220088,0.05128 0.201639,-0.07803 z M 16.726395,38.802637 c 0.01162,-0.07898 -0.01171,-0.121522 -0.06664,-0.121522 -0.108816,0 -0.166039,0.09374 -0.124039,0.203185 0.04557,0.118747 0.16897,0.0659 0.190683,-0.08166 z m 15.488228,-0.05041 c -0.05688,-0.05688 -0.103815,0.02876 -0.05714,0.104271 0.03525,0.05704 0.04844,0.05709 0.06739,2.25e-4 0.01296,-0.03888 0.0084,-0.0859 -0.01024,-0.104496 z M 13.602862,38.457282 c 0,-0.06155 -0.0221,-0.111915 -0.04911,-0.111915 -0.07338,0 -0.179296,0.144649 -0.136935,0.187011 0.07661,0.07661 0.186041,0.03243 0.186041,-0.0751 z m -7.9459913,0.03256 c 0,-0.01287 0.01528,-0.06323 0.03396,-0.111915 0.02416,-0.06296 9e-4,-0.08851 -0.08063,-0.08851 -0.128176,0 -0.20176,0.0828 -0.149183,0.167873 0.03321,0.05373 0.195852,0.08077 0.195852,0.03256 z m 1.266671,-0.284679 c -0.04193,-0.109271 -0.142996,-0.0883 -0.227456,0.04721 -0.04553,0.07304 -0.03975,0.108785 0.02398,0.148529 0.109664,0.06838 0.252208,-0.06874 0.203475,-0.195735 z m 25.8627103,-0.01806 c 0.0098,-0.06684 -0.006,-0.121522 -0.03511,-0.121522 -0.08583,0 -0.191508,0.157701 -0.150327,0.224333 0.05773,0.0934 0.165352,0.03374 0.185444,-0.102811 z m -25.1460045,-0.0045 c 0.04744,-0.07676 -0.02665,-0.228881 -0.111479,-0.228881 -0.09831,0 -0.154926,0.09695 -0.115945,0.198531 0.03464,0.09029 0.178513,0.109489 0.227424,0.03035 z m 23.5892865,-0.06101 c 0,-0.07461 -0.0373,-0.111915 -0.111915,-0.111915 -0.07461,0 -0.111916,0.0373 -0.111916,0.111915 0,0.07461 0.0373,0.111916 0.111916,0.111916 0.07461,0 0.111915,-0.0373 0.111915,-0.111916 z m 3.217568,-0.05672 c 0,-0.119945 -0.162595,-0.102621 -0.186178,0.01984 -0.0144,0.07478 0.0084,0.09757 0.08317,0.08317 0.05665,-0.01091 0.103007,-0.05727 0.103007,-0.103008 z M 9.443201,38.033893 c 0.04664,-0.121538 -0.07176,-0.235835 -0.156511,-0.151086 -0.07163,0.07163 -0.02726,0.238783 0.06339,0.238783 0.03271,0 0.07461,-0.03946 0.09312,-0.0877 z m 2.32813,0.01775 c 0.03604,-0.103299 -0.01628,-0.209842 -0.103027,-0.209842 -0.08673,0 -0.205963,0.191049 -0.15256,0.244453 0.06122,0.06122 0.230137,0.03835 0.255587,-0.03461 z m 21.51854,-0.144329 c 0.01317,-0.08952 -0.01104,-0.121522 -0.09194,-0.121522 -0.131642,0 -0.194194,0.129047 -0.10553,0.217712 0.08928,0.08928 0.176424,0.04683 0.197469,-0.09619 z m -21.228235,0.05022 c 0.04138,-0.06696 -0.06388,-0.133304 -0.138418,-0.08724 -0.06258,0.03868 -0.0215,0.13933 0.05687,0.13933 0.02715,0 0.06384,-0.02344 0.08155,-0.05209 z m 1.009628,-0.106456 c 0,-0.101208 -0.109526,-0.08273 -0.131249,0.02214 -0.01209,0.05835 0.0089,0.08393 0.05596,0.06824 0.04141,-0.0138 0.07529,-0.05448 0.07529,-0.09038 z M 4.9014417,37.617153 c 0,-0.119946 -0.162594,-0.102621 -0.186178,0.01984 -0.0144,0.07478 0.0084,0.09757 0.08317,0.08317 0.05665,-0.01091 0.103007,-0.05726 0.103007,-0.103008 z m 1.035218,7.5e-4 c 0,-0.03078 -0.02667,-0.05596 -0.05926,-0.05596 -0.0326,0 -0.0437,0.02518 -0.02468,0.05596 0.01902,0.03078 0.04569,0.05596 0.05926,0.05596 0.01357,0 0.02468,-0.02518 0.02468,-0.05596 z m 5.5286493,-0.116706 c 0.02249,-0.193483 -0.110002,-0.303934 -0.265051,-0.220955 -0.209153,0.111936 -0.101202,0.415722 0.135664,0.381773 0.074,-0.01061 0.118332,-0.06571 0.129387,-0.160818 z m 20.839583,0.02842 c 0.08001,-0.175612 0.0064,-0.322799 -0.17484,-0.349686 -0.158185,-0.02346 -0.284983,0.08233 -0.284983,0.237776 0,0.275989 0.346627,0.360349 0.459823,0.11191 z m -29.0620013,0.01374 c 0.04568,-0.05504 0.04237,-0.101187 -0.01264,-0.176422 -0.08486,-0.116047 -0.203393,-0.07113 -0.203393,0.07706 0,0.175674 0.110512,0.226502 0.216031,0.09936 z m 9.7724153,-0.453163 c 0,-0.214913 -0.109156,-0.242723 -0.229829,-0.05855 -0.08253,0.125949 -0.08516,0.155801 -0.01756,0.199256 0.141738,0.09111 0.247385,0.03102 0.247385,-0.140703 z m 24.360323,-0.02434 c 0.02282,-0.161245 -0.05238,-0.247149 -0.175114,-0.200052 -0.104953,0.04027 -0.175953,0.219404 -0.121734,0.307132 0.0675,0.10922 0.276933,0.03367 0.296848,-0.10708 z M 7.0837917,36.95573 c 0,-0.101208 -0.109525,-0.08273 -0.131249,0.02214 -0.01209,0.05835 0.0089,0.08393 0.05596,0.06824 0.04141,-0.0138 0.07529,-0.05448 0.075289,-0.09038 z m 4.6165093,0.04663 c 0,-0.03078 -0.02518,-0.05596 -0.05596,-0.05596 -0.03078,0 -0.05596,0.02518 -0.05596,0.05596 0,0.03078 0.02518,0.05596 0.05596,0.05596 0.03077,0 0.05596,-0.02518 0.05596,-0.05596 z m 24.804623,-0.108653 c 0.03395,-0.129801 9.5e-4,-0.171113 -0.136608,-0.171113 -0.07212,0 -0.10259,0.04154 -0.10259,0.139894 0,0.171725 0.195773,0.197277 0.239198,0.03122 z M 9.497301,36.721846 c 0.10375,-0.06422 0.139267,-0.05806 0.273345,0.0474 0.191047,0.150277 0.306881,0.155035 0.306881,0.0126 0,-0.05974 0.02518,-0.124176 0.05596,-0.143197 0.03078,-0.01902 0.05596,-0.122021 0.05596,-0.228889 0,-0.121096 0.03163,-0.206442 0.08394,-0.226515 0.110217,-0.04229 0.107498,-0.167094 -0.0046,-0.210101 -0.04868,-0.01868 -0.169926,-0.03396 -0.269432,-0.03396 -0.162442,0 -0.192625,-0.02715 -0.295534,-0.265799 l -0.114614,-0.265799 -0.08392,0.188937 c -0.05032,0.113301 -0.09951,0.163704 -0.122874,0.125905 -0.06758,-0.109352 -0.144267,-0.0685 -0.144267,0.07686 0,0.107516 -0.02914,0.140093 -0.125905,0.140751 -0.2576975,0.0017 -0.2759675,0.08146 -0.06208,0.270829 0.198598,0.175825 0.202472,0.186736 0.140154,0.394733 -0.09673,0.32286 -0.08642,0.368203 0.06182,0.271871 0.06925,-0.045 0.179565,-0.115034 0.245149,-0.155631 z m 23.802668,0.112663 c 0,-0.06217 -0.0373,-0.111915 -0.08394,-0.111915 -0.08519,0 -0.114784,0.118373 -0.04663,0.186526 0.07094,0.07094 0.130568,0.03687 0.130568,-0.07461 z M 8.2589035,36.777789 c 0,-0.119945 -0.162595,-0.102621 -0.186178,0.01984 -0.0144,0.07478 0.0084,0.09757 0.08317,0.08317 0.05665,-0.01091 0.103008,-0.05727 0.103008,-0.103008 z m 23.1839325,-0.01387 c 0.01293,-0.06715 -0.0172,-0.09728 -0.09728,-0.09728 -0.08008,0 -0.116019,0.03594 -0.116019,0.116019 0,0.143399 0.185211,0.127131 0.213302,-0.01874 z m 0.514149,-0.0074 c 0,-0.04287 -0.03777,-0.09244 -0.08394,-0.110159 -0.05709,-0.02191 -0.08394,0.003 -0.08394,0.07795 0,0.06061 0.03775,0.110159 0.08394,0.110159 0.04616,0 0.08394,-0.03508 0.08394,-0.07795 z M 14.53535,36.578938 c 0.04664,-0.121538 -0.07176,-0.235834 -0.15651,-0.151085 -0.07163,0.07163 -0.02726,0.238783 0.06339,0.238783 0.03271,0 0.07461,-0.03946 0.09312,-0.0877 z m 0.466454,-0.08484 c 0,-0.136371 -0.13076,-0.117095 -0.157986,0.02329 -0.01071,0.05522 0.01784,0.09329 0.06995,0.09329 0.05191,0 0.08804,-0.04784 0.08804,-0.116578 z m 19.23708,-0.736774 -0.01561,-0.741439 -0.545588,-0.01602 -0.545587,-0.01602 -0.007,0.589581 c -0.0038,0.324271 -0.007,0.627354 -0.007,0.673519 0,0.25626 -0.01017,0.25181 0.575191,0.25181 h 0.561197 z M 5.4468357,35.980851 c 0.07822,-0.05509 0.122904,-0.0532 0.223831,0.0094 0.06935,0.04305 0.16902,0.104867 0.221479,0.137367 0.140911,0.0873 0.178025,0.01084 0.115091,-0.237099 -0.05439,-0.21427 -0.04945,-0.226553 0.174546,-0.434087 l 0.230517,-0.213576 -0.167873,-0.01694 c -0.360546,-0.03638 -0.418133,-0.07137 -0.554542,-0.3369 l -0.136076,-0.264886 -0.116306,0.259799 c -0.123697,0.276306 -0.218969,0.345054 -0.414602,0.299171 -0.0668,-0.01567 -0.15923,-0.0031 -0.205395,0.02791 -0.0697,0.04683 -0.04731,0.08755 0.131946,0.240011 0.211784,0.180129 0.214712,0.187835 0.154196,0.405813 -0.10992,0.39593 -0.06568,0.41191 0.343188,0.123967 z m 2.2245118,-0.01038 c 0,-0.04435 -0.02344,-0.09512 -0.05209,-0.112828 -0.06653,-0.04112 -0.133437,0.06367 -0.0878,0.137504 0.05146,0.08326 0.139894,0.06766 0.139894,-0.02468 z M 13.155201,35.85195 c 0,-0.04798 -0.02518,-0.07168 -0.05596,-0.05265 -0.03078,0.01902 -0.05596,0.05828 -0.05596,0.08724 0,0.02896 0.02518,0.05266 0.05596,0.05266 0.03077,0 0.05596,-0.03926 0.05596,-0.08724 z m -1.370964,-0.799259 0.223831,-0.155331 0.25128,0.158778 c 0.287829,0.181872 0.323684,0.146624 0.221629,-0.217879 l -0.07085,-0.253058 0.207899,-0.19046 c 0.245321,-0.224743 0.217467,-0.326548 -0.07848,-0.286852 -0.265907,0.03566 -0.305715,0.0087 -0.438253,-0.296514 -0.120652,-0.277872 -0.09688,-0.293303 -0.282367,0.183285 -0.0543,0.13951 -0.08616,0.153883 -0.341065,0.153883 -0.155701,0 -0.281174,0.02573 -0.281174,0.05767 0,0.03171 0.09012,0.136792 0.200265,0.233502 0.205704,0.18061 0.219196,0.270881 0.100748,0.674101 -0.03946,0.134334 0.02457,0.120675 0.286543,-0.06112 z m -7.0414813,0.01539 c 0.01851,-0.04823 0.0062,-0.115155 -0.02737,-0.148714 -0.08079,-0.08079 -0.239011,0.04537 -0.196341,0.156567 0.04093,0.106673 0.181652,0.101733 0.223704,-0.0079 z m 0.512314,-0.346545 c 0.01344,-0.09418 -0.01009,-0.125334 -0.09462,-0.125334 -0.136435,0 -0.18747,0.07044 -0.140229,0.19355 0.04968,0.129453 0.213438,0.08189 0.234853,-0.06822 z m 2.3905278,-0.438595 0.190613,-0.145388 0.189973,0.117409 c 0.277911,0.171759 0.313251,0.155202 0.251867,-0.117998 -0.05138,-0.228658 -0.04692,-0.240422 0.155534,-0.41039 0.228845,-0.192128 0.216574,-0.218176 -0.129774,-0.275471 -0.213881,-0.03538 -0.243288,-0.06087 -0.328927,-0.285114 -0.108279,-0.283523 -0.161998,-0.276437 -0.254893,0.03362 -0.06121,0.204301 -0.08195,0.221548 -0.267342,0.222338 -0.1105408,4.71e-4 -0.2358888,0.02296 -0.2785508,0.04998 -0.08038,0.05091 -0.04003,0.102174 0.2370258,0.301161 0.09045,0.06496 0.09578,0.102142 0.04228,0.29484 -0.06812,0.245372 -0.07774,0.360399 -0.03013,0.360399 0.01744,0 0.117489,-0.06542 0.222326,-0.145387 z m 26.6811585,-0.04867 c 0.03588,-0.0935 -0.04749,-0.165608 -0.131464,-0.113708 -0.08366,0.05171 -0.06748,0.195852 0.02199,0.195852 0.04287,0 0.09213,-0.03696 0.109471,-0.08214 z M 3.5975597,33.502959 c 0.05214,-0.114427 0.0484,-0.15824 -0.01924,-0.225887 -0.04733,-0.04733 -0.125072,-0.06814 -0.17828,-0.04772 -0.103779,0.03982 -0.181029,0.263074 -0.123333,0.356429 0.06804,0.110084 0.254945,0.06184 0.320857,-0.08282 z m 1.489637,-0.07226 c 0.01344,-0.09134 -0.01088,-0.121522 -0.09793,-0.121522 -0.07499,0 -0.115807,0.03615 -0.115807,0.102589 0,0.21273 0.182833,0.228926 0.213733,0.01893 z m 5.6898023,-0.457268 c 0.123742,-0.136734 0.21437,-0.140359 0.423316,-0.01693 0.203025,0.11993 0.231337,0.08995 0.159779,-0.169213 -0.05376,-0.194702 -0.04659,-0.216911 0.113432,-0.351564 0.246201,-0.207164 0.223605,-0.301657 -0.07213,-0.301657 -0.234962,0 -0.245158,-0.0074 -0.310014,-0.223831 -0.03688,-0.123107 -0.100604,-0.223831 -0.141599,-0.223831 -0.04369,0 -0.08935,0.09263 -0.110331,0.223831 -0.01969,0.123107 -0.04179,0.224782 -0.04912,0.225944 -0.0073,0.0011 -0.114053,0.01638 -0.23716,0.03383 -0.123106,0.01744 -0.236421,0.04413 -0.251809,0.0593 -0.01539,0.01517 0.05518,0.09732 0.156822,0.182544 0.189815,0.159157 0.193046,0.18078 0.08602,0.575568 -0.03644,0.134383 0.106289,0.125806 0.232802,-0.01399 z M 3.2227117,32.665663 c 0,-0.166649 -0.218436,-0.15 -0.242299,0.01847 -0.01537,0.108492 0.0034,0.127283 0.111915,0.111916 0.08692,-0.01231 0.130384,-0.05577 0.130384,-0.130384 z m 4.124081,-0.09513 c -0.05223,-0.05223 -0.06715,-0.0373 -0.06715,0.06715 0,0.104455 0.01492,0.119377 0.06715,0.06715 0.05223,-0.05223 0.05223,-0.08207 0,-0.1343 z M 3.5765497,32.15269 c -0.02723,-0.140385 -0.157987,-0.159661 -0.157987,-0.02329 0,0.06874 0.03613,0.116579 0.08804,0.116579 0.05211,0 0.08066,-0.03807 0.06995,-0.09329 z m 6.2521813,-0.0235 c 0.05767,-0.09331 -0.07203,-0.200301 -0.149223,-0.123107 -0.06457,0.06457 -0.02416,0.18394 0.06227,0.18394 0.02715,0 0.06627,-0.02737 0.08695,-0.06083 z M 1.9327307,31.737584 c -0.01802,-0.02915 -0.05661,-0.03826 -0.08576,-0.02025 -0.02915,0.01802 -0.03826,0.05661 -0.02025,0.08576 0.01802,0.02915 0.05661,0.03826 0.08576,0.02025 0.02915,-0.01802 0.03826,-0.05661 0.02025,-0.08576 z m 3.108605,0.0048 c 0,-0.06155 -0.03628,-0.111916 -0.08063,-0.111916 -0.09885,0 -0.162056,0.09209 -0.115217,0.167874 0.06085,0.09846 0.195851,0.05989 0.195851,-0.05596 z m 1.414905,-0.406094 c 0.162497,-0.112555 0.191158,-0.104918 0.421487,0.112316 0.167054,0.157556 0.235346,0.004 0.126061,-0.283434 -0.04363,-0.114758 -0.02558,-0.162176 0.111915,-0.2939 0.227661,-0.218114 0.212049,-0.304 -0.05526,-0.304 -0.208243,0 -0.22401,-0.01259 -0.315369,-0.251809 -0.05289,-0.138496 -0.114506,-0.25181 -0.13692,-0.25181 -0.02242,0 -0.08403,0.113314 -0.13692,0.25181 -0.09136,0.23922 -0.107126,0.251809 -0.31537,0.251809 -0.270369,0 -0.287594,0.100378 -0.05134,0.299174 0.146933,0.123635 0.160888,0.159598 0.111915,0.288405 -0.03077,0.08094 -0.05595,0.197366 -0.05595,0.258732 0,0.118581 0.02082,0.11314 0.295751,-0.07729 z m 6.5682523,-0.01735 c 0.01851,-0.04823 0.0049,-0.116402 -0.03014,-0.151485 -0.07876,-0.07876 -0.265335,0.08217 -0.206201,0.177855 0.05585,0.09037 0.197609,0.07455 0.236336,-0.02637 z M 9.685824,30.576599 c 0,-0.07286 -0.06652,-0.121319 -0.120633,-0.08788 -0.05787,0.03576 -0.008,0.134506 0.06798,0.134506 0.02896,0 0.05266,-0.02098 0.05266,-0.04663 z m 2.45052,-0.233208 c 0.009,-0.07697 -0.0225,-0.190284 -0.06998,-0.251809 -0.08571,-0.111043 -0.08717,-0.110894 -0.198224,0.02024 -0.192426,0.227215 -0.138684,0.417058 0.109859,0.388074 0.104227,-0.01215 0.14634,-0.05378 0.158349,-0.156503 z m -8.5219293,-0.08465 c 0,-0.156573 -0.163898,-0.139222 -0.186406,0.01973 -0.01437,0.101497 0.0044,0.126452 0.08394,0.111149 0.05831,-0.01123 0.10247,-0.06764 0.10247,-0.130883 z M 3.3066477,29.3875 c 0,-0.136372 -0.13076,-0.117096 -0.157986,0.02329 -0.01071,0.05522 0.01784,0.09329 0.06995,0.09329 0.05191,0 0.08804,-0.04784 0.08804,-0.116579 z m 4.9802348,-0.16321 c 0,-0.127239 -0.140336,-0.152475 -0.18601,-0.03345 -0.03512,0.09152 0.0061,0.145365 0.111399,0.145365 0.04103,0 0.07461,-0.05036 0.074611,-0.111915 z m 4.1782555,-0.368064 c 0.01863,-0.04855 -0.0073,-0.12949 -0.05771,-0.179864 -0.08481,-0.08481 -0.09836,-0.08481 -0.183176,0 -0.114405,0.114404 -0.06189,0.268139 0.09159,0.268139 0.06349,0 0.130672,-0.03972 0.149303,-0.08827 z M 4.7516617,28.702044 c 0.01071,-0.05522 -0.01784,-0.09329 -0.06995,-0.09329 -0.05191,0 -0.08804,0.04784 -0.08804,0.116579 0,0.136371 0.13076,0.117095 0.157987,-0.02329 z m 5.6031193,-0.06226 c 0.09825,-0.118381 0.20067,-0.109339 0.395817,0.03494 0.194117,0.143518 0.266546,0.103729 0.175385,-0.09635 -0.09868,-0.216573 -0.07895,-0.341567 0.07174,-0.454588 0.225022,-0.168767 0.205569,-0.26855 -0.05256,-0.269577 -0.212551,-8.5e-4 -0.227595,-0.0126 -0.306219,-0.239225 -0.09306,-0.268246 -0.165807,-0.279575 -0.243682,-0.03795 -0.08154,0.252985 -0.145681,0.30427 -0.38055,0.30427 -0.119338,0 -0.216979,0.01007 -0.216979,0.02238 0,0.01231 0.08733,0.109712 0.194064,0.216447 0.178501,0.178501 0.18972,0.20921 0.139894,0.382941 -0.08199,0.285868 -0.07206,0.343025 0.04836,0.278576 0.05639,-0.03018 0.135017,-0.09402 0.174725,-0.141863 z m -6.7770863,-0.0556 c 0.01058,-0.05458 -0.01,-0.128034 -0.04573,-0.163236 -0.09672,-0.09528 -0.248624,0.12027 -0.160007,0.227047 0.08014,0.09656 0.180698,0.06538 0.205743,-0.06381 z m 3.8698218,-0.03549 c 0,-0.143399 -0.1852098,-0.127132 -0.2133018,0.01874 -0.01293,0.06715 0.0172,0.09728 0.09728,0.09728 0.08008,0 0.1160178,-0.03594 0.1160178,-0.116019 z M 3.8102677,28.328966 c 0,-0.06217 -0.0373,-0.111915 -0.08394,-0.111915 -0.08519,0 -0.114784,0.118373 -0.04663,0.186525 0.07094,0.07094 0.130568,0.03687 0.130568,-0.07461 z m -1.510858,-0.167873 c 0,-0.06155 -0.02518,-0.111915 -0.05596,-0.111915 -0.03077,0 -0.05596,0.05036 -0.05596,0.111915 0,0.06155 0.02518,0.111916 0.05596,0.111916 0.03078,0 0.05596,-0.05036 0.05596,-0.111916 z m 1.29661,-0.148567 c 0.135923,-0.123009 0.130858,-0.302112 -0.0096,-0.338838 -0.06155,-0.0161 -0.111915,-0.05151 -0.111915,-0.0787 0,-0.104564 -0.152499,-0.04282 -0.223939,0.09067 -0.0674,0.125939 -0.06172,0.154214 0.05626,0.279789 0.15547,0.16549 0.157905,0.165886 0.289181,0.04708 z m 8.3840693,-0.1592 c 0,-0.04616 -0.02518,-0.08394 -0.05596,-0.08394 -0.03078,0 -0.05596,0.03777 -0.05596,0.08394 0,0.04616 0.02518,0.08394 0.05596,0.08394 0.03078,0 0.05596,-0.03777 0.05596,-0.08394 z m 1.063196,-0.279788 c 0,-0.04616 -0.0237,-0.08394 -0.05266,-0.08394 -0.07056,0 -0.121098,0.08738 -0.07639,0.132089 0.06302,0.06302 0.129046,0.03838 0.129046,-0.04815 z M 9.545854,26.812291 c 0.325943,-0.08207 0.684252,-0.398051 0.846508,-0.746499 0.17544,-0.37676 0.183001,-1.005858 0.01652,-1.374075 C 10.269513,24.383471 10.01127,24.106181 9.713806,23.945374 9.504546,23.832249 9.413186,23.824373 8.3104165,23.824373 H 7.1308577 l -0.269893,0.167872 c -0.372466,0.231674 -0.568495,0.497251 -0.674962,0.914432 -0.206236,0.808113 0.178618,1.637939 0.869813,1.875501 0.306659,0.105398 2.1047043,0.127142 2.4900413,0.03011 z M 5.3133247,26.463782 c 0.08576,-0.103337 -0.05372,-0.292519 -0.17996,-0.244077 -0.09165,0.03517 -0.125721,0.210312 -0.05472,0.28131 0.06017,0.06017 0.168054,0.04305 0.234683,-0.03723 z M 13.25648,25.597265 c -0.02151,-0.186162 -0.192241,-0.203257 -0.306802,-0.03072 -0.06932,0.104404 -0.06793,0.130746 0.01105,0.20973 0.133531,0.133531 0.318898,0.02133 0.295752,-0.17901 z m -10.4534513,0.10169 c 0,-0.11585 -0.134998,-0.154421 -0.195852,-0.05596 -0.04684,0.07579 0.01636,0.167874 0.115218,0.167874 0.04435,0 0.08063,-0.05036 0.08063,-0.111916 z m 1.529858,-0.194868 c 0.119122,-0.119122 0.0536,-0.308751 -0.106683,-0.308751 -0.161517,0 -0.259314,0.154209 -0.185392,0.292332 0.0648,0.121091 0.180879,0.127616 0.292075,0.01642 z m 8.0151293,-0.837169 c 0.03967,-0.158046 -0.005,-0.25499 -0.117451,-0.25499 -0.09904,0 -0.213178,0.206406 -0.172605,0.31214 0.0515,0.134211 0.251939,0.09472 0.290056,-0.05715 z m -0.815588,-0.394884 c 0,-0.04616 -0.0237,-0.08394 -0.05266,-0.08394 -0.07056,0 -0.121097,0.08738 -0.07639,0.132088 0.06302,0.06302 0.129047,0.03838 0.129047,-0.04815 z m 1.726212,-0.27609 c 0.0273,-0.143072 -0.149636,-0.277312 -0.252732,-0.19175 -0.08019,0.06655 -0.09946,0.228415 -0.03487,0.293001 0.07471,0.07471 0.266945,0.007 0.287605,-0.101251 z M 4.8654617,23.802523 c 0.0924,-0.05855 0.03446,-0.285918 -0.07285,-0.285918 -0.04032,0 -0.104662,0.03777 -0.142975,0.08394 -0.05558,0.06696 -0.05558,0.100907 0,0.167873 0.07981,0.09617 0.110287,0.100982 0.215829,0.03411 z m -1.304317,-0.366109 c 0.06939,-0.105903 0.07545,-0.161833 0.0273,-0.25181 -0.07398,-0.13824 -0.15816,-0.145629 -0.325303,-0.02856 -0.148989,0.104356 -0.161825,0.277215 -0.02644,0.356069 0.152792,0.08899 0.228035,0.07144 0.324444,-0.0757 z M 14.104683,23.322913 c 0.119387,-0.143853 0.273264,-0.155608 0.444147,-0.03393 0.08937,0.06363 0.178349,0.115699 0.197741,0.115699 0.01939,0 0.01951,-0.11961 2.63e-4,-0.265799 -0.03142,-0.238605 -0.02016,-0.278643 0.109988,-0.391334 0.203025,-0.175792 0.18119,-0.23819 -0.08335,-0.23819 -0.214429,0 -0.233686,-0.01363 -0.316256,-0.223831 -0.04836,-0.123107 -0.109488,-0.223831 -0.135845,-0.223831 -0.02636,0 -0.08822,0.100724 -0.137482,0.223831 -0.0794,0.19844 -0.110712,0.223831 -0.276033,0.223831 -0.263618,0 -0.291195,0.09655 -0.07833,0.274252 0.173298,0.144676 0.179649,0.162919 0.118136,0.339375 -0.03575,0.102565 -0.06501,0.207904 -0.06501,0.234088 0,0.07726 0.148527,0.05441 0.222032,-0.03416 z M 5.2546707,22.886262 c 0.02227,-0.115641 -0.139268,-0.193563 -0.224526,-0.108306 -0.08526,0.08526 -0.0073,0.246797 0.108306,0.224527 0.0536,-0.01032 0.105898,-0.06262 0.11622,-0.116221 z m 1.603998,-0.263559 c 0.08651,-0.09559 0.09054,-0.133307 0.02986,-0.279789 -0.08338,-0.20129 -0.195788,-0.215659 -0.339496,-0.0434 -0.138192,0.165652 -0.134789,0.24122 0.01561,0.346563 0.158391,0.110942 0.173557,0.109736 0.294024,-0.02338 z m 3.2188583,-0.249935 c 0,-0.07513 -0.02291,-0.15075 -0.05091,-0.168055 -0.08535,-0.05275 -0.228881,0.03093 -0.228881,0.133434 0,0.123838 0.04903,0.171213 0.1772,0.171213 0.07146,0 0.102588,-0.04144 0.102588,-0.136592 z m 1.500616,-0.549208 c 0.01157,-0.10056 -0.01276,-0.165907 -0.06995,-0.187849 -0.05195,-0.01993 -0.08768,-0.100343 -0.08768,-0.19729 0,-0.203545 -0.123123,-0.258281 -0.308199,-0.137015 -0.180146,0.118037 -0.179942,0.296586 4.32e-4,0.37877 0.07694,0.03506 0.139894,0.105863 0.139894,0.157347 0,0.235532 0.298278,0.222737 0.325504,-0.01396 z m 4.263027,0.04229 c 0,-0.04616 -0.03698,-0.08394 -0.08218,-0.08394 -0.05006,0 -0.06959,0.03281 -0.04997,0.08394 0.01772,0.04616 0.0547,0.08394 0.08218,0.08394 0.02749,0 0.04997,-0.03777 0.04997,-0.08394 z m -0.391704,-0.111915 c 0,-0.101172 -0.03007,-0.139894 -0.108613,-0.139894 -0.05974,0 -0.124921,0.02639 -0.144853,0.05864 -0.05994,0.09699 0.01854,0.221151 0.139794,0.221151 0.08394,0 0.113672,-0.03658 0.113672,-0.139894 z m -2.406181,-0.0886 c 0,-0.136371 -0.13076,-0.117095 -0.157987,0.02329 -0.01071,0.05522 0.01784,0.09329 0.06995,0.09329 0.05191,0 0.08804,-0.04784 0.08804,-0.116579 z m 1.109268,-0.34971 c 0.01071,-0.05522 -0.01784,-0.09329 -0.06995,-0.09329 -0.05191,0 -0.08804,0.04784 -0.08804,0.116579 0,0.136372 0.130761,0.117095 0.157987,-0.02329 z M 4.3698447,21.110419 c 0,-0.06217 -0.0373,-0.111916 -0.08394,-0.111916 -0.04663,0 -0.08394,0.04974 -0.08394,0.111916 0,0.06218 0.0373,0.111915 0.08394,0.111915 0.04663,0 0.08394,-0.04974 0.08394,-0.111915 z m 0.727449,0.02798 c 0,-0.04617 -0.0237,-0.08394 -0.05265,-0.08394 -0.07056,0 -0.121098,0.08738 -0.07639,0.132089 0.06302,0.06302 0.129046,0.03838 0.129046,-0.04815 z m 24.0058483,-0.02798 c 0,-0.03078 -0.03777,-0.05596 -0.08394,-0.05596 -0.04616,0 -0.08394,0.02518 -0.08394,0.05596 0,0.03077 0.03777,0.05596 0.08394,0.05596 0.04616,0 0.08394,-0.02518 0.08394,-0.05596 z M 26.97675,20.690715 c 0,-0.04617 -0.03777,-0.08394 -0.08394,-0.08394 -0.04616,0 -0.08394,0.03777 -0.08394,0.08394 0,0.04616 0.03777,0.08394 0.08394,0.08394 0.04616,0 0.08394,-0.03777 0.08394,-0.08394 z m -18.9462545,-0.006 c 0.04868,-0.01868 0.08851,-0.08163 0.08851,-0.139894 0,-0.147908 -0.07177,-0.131296 -0.148619,0.0344 -0.07069,0.152408 -0.06916,0.155095 0.06011,0.105492 z m 15.1777795,-0.09888 c 0.01567,-0.01272 0.0327,-0.173485 0.02594,-0.244858 -0.0037,-0.03847 -0.0691,-0.06995 -0.145458,-0.06995 -0.100554,0 -0.148288,0.03769 -0.173141,0.136714 -0.04615,0.183895 0.01517,0.267655 0.162795,0.222336 0.06666,-0.02046 0.125097,-0.04037 0.129865,-0.04424 z m -5.352628,-0.184789 c 0,-0.110734 -0.02462,-0.134287 -0.125334,-0.119918 -0.139876,0.01996 -0.204357,0.204266 -0.09509,0.271798 0.113625,0.07022 0.220422,-0.0034 0.220422,-0.15188 z m 5.866305,-0.178438 c 0.02391,-0.168956 -0.05969,-0.252548 -0.206084,-0.206083 -0.123653,0.03924 -0.206594,0.216285 -0.146716,0.31317 0.02028,0.03281 0.103744,0.05193 0.185474,0.04247 0.107333,-0.01242 0.1538,-0.05395 0.167326,-0.149557 z m 5.88481,-0.37126 c 0,-0.04617 -0.03777,-0.08394 -0.08394,-0.08394 -0.04616,0 -0.08394,0.03777 -0.08394,0.08394 0,0.04616 0.03777,0.08394 0.08394,0.08394 0.04616,0 0.08394,-0.03777 0.08394,-0.08394 z m -4.807271,-0.441527 c -0.08684,-0.104629 -0.228922,-0.05552 -0.228922,0.07912 0,0.131234 0.118063,0.173663 0.219024,0.07871 0.06338,-0.0596 0.06535,-0.09102 0.0099,-0.157837 z m -8.566618,0.04652 c 0,-0.09233 -0.08844,-0.107934 -0.139894,-0.02468 -0.04563,0.07384 0.02128,0.178621 0.0878,0.137505 0.02865,-0.01771 0.05209,-0.06848 0.05209,-0.112829 z m 2.395737,-0.458348 c 0.01132,-0.11746 -0.0072,-0.181863 -0.05235,-0.181863 -0.03844,0 -0.126013,-0.05273 -0.194613,-0.117175 l -0.124728,-0.117175 -0.06783,0.126734 c -0.05539,0.103504 -0.05263,0.137844 0.01505,0.187338 0.04558,0.03333 0.101296,0.118631 0.123807,0.189554 0.06522,0.205499 0.278393,0.143522 0.300659,-0.08741 z m 2.978532,-0.324565 c 0.05931,-0.07146 0.05653,-0.102207 -0.01576,-0.174495 -0.101646,-0.101646 -0.210404,-0.0565 -0.210404,0.08734 0,0.183331 0.110879,0.226059 0.226162,0.08715 z m -0.85108,-0.21362 c 0.01093,-0.05678 -0.0078,-0.130949 -0.04172,-0.164832 -0.08723,-0.08723 -0.244664,0.07864 -0.195715,0.206199 0.04722,0.123062 0.211279,0.09448 0.23744,-0.04137 z m -2.966259,-0.05401 c 0.0122,-0.0629 -0.0197,-0.09329 -0.09793,-0.09329 -0.06381,0 -0.116019,0.03358 -0.116019,0.07461 0,0.171384 0.18126,0.187209 0.213945,0.01868 z M 19.78,18.392388 c 0.03702,-0.09649 -0.05242,-0.303713 -0.131099,-0.303713 -0.186692,0 -0.310862,0.23267 -0.189134,0.354399 0.07104,0.07104 0.286614,0.03692 0.320233,-0.05069 z m 6.413342,-0.07988 c 0,-0.03078 -0.02518,-0.05596 -0.05596,-0.05596 -0.03077,0 -0.05596,0.02518 -0.05596,0.05596 0,0.03077 0.02518,0.05596 0.05596,0.05596 0.03077,0 0.05596,-0.02518 0.05596,-0.05596 z M 25.353977,17.89551 c 0,-0.04105 -0.03872,-0.08951 -0.08605,-0.10767 -0.110391,-0.04236 -0.180551,0.127902 -0.07865,0.190878 0.09087,0.05616 0.164709,0.01886 0.164709,-0.08321 z m -0.895323,-0.114599 c 0,-0.142188 -0.127446,-0.194621 -0.197508,-0.08126 -0.0539,0.08721 0.01382,0.221151 0.111815,0.221151 0.0541,0 0.08569,-0.05157 0.08569,-0.139894 z m 2.238308,-0.162991 c 0,-0.196845 -0.120883,-0.272164 -0.269613,-0.167989 -0.146353,0.102509 -0.159051,0.276756 -0.02561,0.351433 0.135867,0.07604 0.295223,-0.02299 0.295224,-0.183444 z m -1.23107,-0.483207 c 0,-0.146795 -0.107821,-0.193265 -0.210404,-0.09068 -0.07064,0.07064 -0.07425,0.104011 -0.01852,0.171168 0.08723,0.105104 0.228922,0.05529 0.228921,-0.08049 z M 22.61205,17.028784 c 0,-0.05974 -0.02009,-0.121028 -0.04464,-0.136202 -0.07973,-0.04928 -0.196449,0.06317 -0.161122,0.155231 0.04852,0.126442 0.205763,0.1119 0.205763,-0.01903 z m -0.503619,-0.223831 c 0,-0.150676 -0.105857,-0.201215 -0.207843,-0.09923 -0.101985,0.101986 -0.05145,0.207843 0.09923,0.207843 0.07021,0 0.108613,-0.0384 0.108613,-0.108613 z m -0.335746,21.09866 c -1.498363,-0.327961 -2.75213,-1.011711 -3.805123,-2.075148 -1.081032,-1.091754 -1.82328,-2.466318 -2.107494,-3.90285 -0.118793,-0.600432 -0.131669,-1.9254 -0.02462,-2.533478 0.156288,-0.887764 0.616391,-2.051158 1.082111,-2.736177 1.161545,-1.708492 2.939124,-2.87706 4.913271,-3.229951 0.988119,-0.176632 2.416299,-0.101882 3.341284,0.174879 l 0.293777,0.0879 v 0.977092 0.977091 h 0.419683 0.419683 l -2.1e-5,0.377715 -2e-5,0.377714 -0.601525,0.0058 c -0.455055,0.0044 -0.677911,0.03363 -0.915232,0.120122 -0.624329,0.227543 -1.137255,0.656148 -1.451419,1.212817 l -0.176345,0.312465 -0.209493,-0.321976 c -0.115222,-0.177087 -0.333464,-0.437051 -0.484983,-0.577698 -0.581285,-0.539576 -1.117805,-0.740058 -1.980562,-0.740082 -0.837306,-2.3e-5 -1.462491,0.254622 -2.088979,0.850865 -1.354785,1.28938 -1.570522,3.214692 -0.533534,4.761448 0.192913,0.287746 0.569416,0.719512 0.953089,1.092983 2.315671,2.254093 4.104635,3.830872 4.346755,3.831194 0.193134,2.57e-4 1.386432,-1.028416 3.561952,-3.07055 l 0.839365,-0.787903 1.035217,-0.01525 1.035217,-0.01525 0.01634,-0.433672 0.01634,-0.433672 h 0.361372 c 0.198754,0 0.361371,0.02388 0.361371,0.05307 0,0.148763 -0.319435,1.036966 -0.514218,1.42981 -1.064592,2.14709 -2.925865,3.669913 -5.10953,4.180423 -0.72894,0.170416 -2.322603,0.197186 -2.993737,0.05029 z m 8.103768,-4.752704 c 0.01368,-0.09298 -0.01072,-0.121521 -0.103914,-0.121521 -0.08807,0 -0.112389,0.02451 -0.08783,0.08851 0.01868,0.04868 0.03396,0.113733 0.03396,0.144557 0,0.10785 0.140064,0.0088 0.157776,-0.111549 z m 0.06605,-0.71238 c 0,-0.04435 -0.02518,-0.08063 -0.05596,-0.08063 -0.03078,0 -0.05596,0.05185 -0.05596,0.115218 0,0.06337 0.02518,0.09965 0.05596,0.08063 0.03077,-0.01902 0.05596,-0.07087 0.05596,-0.115218 z m -7.218541,-6.096086 c 0,-0.04616 -0.02518,-0.08394 -0.05596,-0.08394 -0.03077,0 -0.05596,0.03777 -0.05596,0.08394 0,0.04616 0.02518,0.08394 0.05596,0.08394 0.03078,0 0.05596,-0.03777 0.05596,-0.08394 z m 20.822981,10.886114 c -0.253538,-0.214148 -0.586005,-0.481138 -0.738815,-0.593311 l -0.277837,-0.203952 0.355167,-0.376496 c 0.463533,-0.491369 0.934556,-1.058758 0.934556,-1.125755 0,-0.115745 0.137735,-0.03902 0.46684,0.260059 0.189501,0.172211 0.476914,0.405135 0.638695,0.517609 0.161781,0.112473 0.287686,0.230403 0.279788,0.262067 -0.02007,0.08044 -1.1263,1.643271 -1.165465,1.646502 -0.01757,0.0015 -0.239391,-0.172575 -0.492929,-0.386723 z m 0.273071,-0.956927 c 0,-0.02896 -0.03777,-0.05266 -0.08394,-0.05266 -0.08653,0 -0.111171,0.06603 -0.04815,0.129047 0.04471,0.04471 0.132089,-0.0058 0.132089,-0.07639 z m -4.323103,-0.234518 c -0.01644,-0.284684 -0.01844,-0.536494 -0.0044,-0.559576 0.01398,-0.02308 0.363882,-0.04197 0.777552,-0.04197 h 0.752126 v 0.559577 0.559577 h -0.747676 -0.747667 z m 0.712171,-2.418696 c -0.02156,-0.230015 -0.02322,-0.481824 -0.0037,-0.559577 0.03537,-0.140916 0.03753,-0.141368 0.677929,-0.141368 h 0.642447 v 0.559577 0.559577 H 40.88701 40.248271 Z m -9.091463,-0.784881 v -0.587556 h 0.531598 0.531598 v 0.587556 0.587555 h -0.531598 -0.531598 z m 8.581756,-0.294873 c -1.359393,-0.01734 -1.234004,0.04972 -1.227465,-0.656409 l 0.0041,-0.447661 0.531598,-0.02798 0.531598,-0.02798 0.01625,-0.461651 0.01625,-0.461651 h 0.697208 0.697209 v 1.031915 c 0,0.567553 -0.01889,1.039696 -0.04197,1.049206 -0.02308,0.0095 -0.574255,0.0105 -1.224829,0.0022 z m 2.609782,-0.768323 v -0.811387 h 0.755429 0.755428 v 0.811387 0.811386 h -0.755428 -0.755429 z m -5.763642,-1.203091 v -0.783407 h 0.755429 0.755429 v 0.783407 0.783408 h -0.755429 -0.755429 z m -7.172831,-0.349736 c -0.0114,-0.592452 -0.01082,-1.121252 0.0013,-1.175111 0.0203,-0.09029 0.139341,-0.09793 1.526346,-0.09793 1.299878,0 1.504331,-0.01141 1.504331,-0.08394 0,-0.06872 0.09637,-0.08394 0.531598,-0.08394 h 0.531598 v 1.063196 1.063196 H 32.768371 32.0689 v -0.47564 -0.475641 h -0.50362 -0.503619 v 0.671493 0.671492 h -0.834123 -0.834124 z m -2.197868,0.800979 c -0.01251,-0.02024 -0.04059,-0.318904 -0.06241,-0.663702 l -0.03967,-0.626906 h 0.709211 0.709211 l -0.01577,0.657503 -0.01576,0.657502 -0.631036,0.0062 c -0.34707,0.0034 -0.64127,-0.01036 -0.653777,-0.03059 z m 18.277412,-1.522686 -0.799944,-0.776416 0.183166,-0.153256 c 0.476191,-0.398434 0.784301,-0.685781 1.085749,-1.012584 l 0.328111,-0.355709 0.506051,0.526504 c 0.278328,0.289578 0.638103,0.638504 0.799499,0.775392 l 0.293448,0.248887 -0.798068,0.761798 -0.798067,0.761798 z m -4.784497,0.25073 c -0.02052,-0.02052 -0.0373,-0.272327 -0.0373,-0.559577 v -0.522271 h 0.55025 c 0.302638,0 0.560743,0.01038 0.573567,0.02307 0.01282,0.01269 0.01529,0.264498 0.0055,0.559577 l -0.01783,0.536507 h -0.518432 c -0.285137,0 -0.535219,-0.01679 -0.555737,-0.0373 z m -3.520671,-1.183152 -0.209841,-0.01737 v -1.031839 -1.03184 h 0.895323 0.895323 v 1.03202 1.032019 l -0.685482,0.01719 c -0.377015,0.0095 -0.77991,0.0094 -0.895323,-1.8e-4 z m -7.148595,-0.54221 v -0.47564 h 0.475641 0.47564 v 0.47564 0.475641 h -0.47564 -0.475641 z M 34.130912,27.718 c -0.01076,-0.274464 -0.03672,-0.516164 -0.05771,-0.537112 -0.02099,-0.02095 -0.133994,-0.0419 -0.25113,-0.04656 -0.152006,-0.006 -0.218216,-0.03582 -0.231281,-0.103983 -0.01579,-0.08238 0.04182,-0.09776 0.419004,-0.111915 l 0.437309,-0.01641 0.01594,-0.539237 0.01594,-0.539238 -0.183813,-0.02034 c -0.101096,-0.01119 -0.464727,-0.01188 -0.808068,-0.0015 -0.744394,0.02242 -0.688892,-0.05822 -0.689985,1.002427 l -7.5e-4,0.74144 h -0.145132 c -0.09807,0 -0.154623,-0.03629 -0.1744,-0.111916 -0.02728,-0.104314 -0.07633,-0.111915 -0.722211,-0.111915 H 31.06168 v -0.697293 -0.697292 l -0.489629,-0.01617 -0.48963,-0.01617 -0.01623,-0.528569 c -0.0089,-0.290714 -0.04349,-0.561409 -0.0768,-0.601546 -0.04908,-0.05914 0.04155,-0.07298 0.477885,-0.07298 h 0.538449 v 0.47564 0.47564 h 0.889337 c 0.759338,0 0.894301,-0.01294 0.923302,-0.08851 0.01868,-0.04868 0.03396,-0.300492 0.03396,-0.559577 0,-0.264493 0.02362,-0.471063 0.05386,-0.471063 0.02962,0 0.0611,-0.232924 0.06995,-0.517609 l 0.01609,-0.517609 1.175111,-0.01506 1.175112,-0.01506 -0.01988,0.672565 -0.01988,0.672565 h 0.28238 c 0.155309,0 0.297943,0.02518 0.316964,0.05596 0.02058,0.0333 -0.04605,0.05596 -0.164571,0.05596 h -0.199172 v 0.643513 0.643514 h 0.447662 0.447661 v 1.007238 1.007238 h -1.141565 -1.141565 z m 1.944768,-0.643057 c 0.03378,-0.08803 -0.121792,-0.424733 -0.196243,-0.424733 -0.02622,0 -0.07974,0.03864 -0.118943,0.08588 -0.05919,0.07132 -0.05086,0.1049 0.04911,0.198032 0.06621,0.06168 0.120381,0.136351 0.120381,0.165929 0,0.08287 0.111645,0.06363 0.145699,-0.02511 z m -1.013044,-2.327295 c -0.01902,-0.03078 -0.08197,-0.05596 -0.139894,-0.05596 -0.05792,0 -0.120873,0.02518 -0.139894,0.05596 -0.02023,0.03274 0.03782,0.05596 0.139894,0.05596 0.102069,0 0.160125,-0.02322 0.139894,-0.05596 z M 34.44624,23.966954 c 0.04537,-0.142953 -0.02331,-0.282502 -0.139032,-0.282502 -0.1045,0 -0.167874,0.10559 -0.167874,0.279702 0,0.185944 0.24806,0.188207 0.306906,0.0028 z m -7.512693,2.865118 0.01522,-1.049207 0.153884,-0.01771 0.153884,-0.01771 v -0.527881 c 0,-0.550238 0.01726,-0.583231 0.241498,-0.461563 0.06722,0.03647 0.21036,0.08103 0.318078,0.09902 0.132569,0.02214 0.196072,0.06303 0.196531,0.126568 3.73e-4,0.05163 0.07207,0.168378 0.159321,0.259451 0.116589,0.121693 0.148559,0.197358 0.120603,0.285439 -0.02092,0.06592 -0.01229,0.150884 0.01919,0.188811 0.03148,0.03793 0.06503,0.20669 0.07457,0.375029 l 0.01734,0.306071 h 0.433765 0.433766 l -9.3e-5,0.74144 -9.4e-5,0.741439 h -1.176339 -1.176346 z m 12.673001,-0.385027 c -0.02163,-0.02163 -0.03932,-0.24916 -0.03932,-0.505633 v -0.466314 h 0.533777 0.533777 l -0.01617,0.48963 -0.01617,0.48963 -0.47829,0.016 c -0.26306,0.0088 -0.495983,-0.0017 -0.517609,-0.02332 z m 1.919201,-1.895249 v -1.147132 h 1.566816 1.566815 v 1.147132 1.147133 h -1.566815 -1.566816 z m 2.294265,0.05596 c 0,-0.04616 -0.03777,-0.08394 -0.08394,-0.08394 -0.04616,0 -0.08394,0.03777 -0.08394,0.08394 0,0.04616 0.03777,0.08394 0.08394,0.08394 0.04616,0 0.08394,-0.03777 0.08394,-0.08394 z m 0.381607,-0.298161 c 0.01162,-0.07898 -0.01171,-0.121521 -0.06664,-0.121521 -0.108815,0 -0.166038,0.09374 -0.124039,0.203184 0.04557,0.118748 0.168971,0.0659 0.190684,-0.08166 z m -0.886083,-0.555194 c 6e-4,-0.08888 -0.03205,-0.125904 -0.111058,-0.125904 -0.07461,0 -0.111915,0.0373 -0.111915,0.111915 0,0.06155 0.02518,0.111915 0.05596,0.111915 0.03078,0 0.05634,0.04407 0.05682,0.09793 7.5e-4,0.08369 0.0087,0.08572 0.0551,0.01399 0.02984,-0.04616 0.05463,-0.140594 0.0551,-0.209841 z m -6.521268,1.32309 c -0.05081,-0.09826 -0.316427,-0.512222 -0.590254,-0.919908 -0.273826,-0.407686 -0.497866,-0.753161 -0.497866,-0.767721 0,-0.06997 1.804938,-1.335751 1.844019,-1.293183 0.02471,0.02692 0.261265,0.351108 0.525678,0.720429 0.264414,0.369321 0.556104,0.761688 0.648202,0.871926 l 0.16745,0.200434 -0.627405,0.419292 c -0.345072,0.23061 -0.796161,0.538113 -1.00242,0.68334 l -0.375016,0.264047 z m 0.758483,-1.057293 c 0,-0.06217 -0.0373,-0.111915 -0.08394,-0.111915 -0.04663,0 -0.08394,0.04974 -0.08394,0.111915 0,0.06218 0.0373,0.111916 0.08394,0.111916 0.04663,0 0.08394,-0.04974 0.08394,-0.111916 z M 27.536327,23.103137 v -1.031159 l 1.105164,-0.0198 c 0.607841,-0.01089 1.162378,-0.01017 1.232306,0.0016 l 0.12714,0.02141 -0.01522,1.014469 -0.01523,1.014468 -1.21708,0.01508 -1.217079,0.01508 z m 1.956761,-0.803638 c 9.49e-4,-0.03847 -0.04772,-0.06995 -0.108188,-0.06995 -0.118517,0 -0.252578,0.19119 -0.197055,0.281028 0.04201,0.06797 0.30276,-0.112342 0.305243,-0.211081 z m 17.706173,1.401022 c -0.176794,-0.239663 -0.480649,-0.633421 -0.675233,-0.875017 -0.194585,-0.241596 -0.353791,-0.460991 -0.353791,-0.487545 0,-0.02655 0.157381,-0.154367 0.349736,-0.284029 0.289969,-0.195463 0.890566,-0.656706 1.275882,-0.979844 0.07508,-0.06297 0.136394,-0.0032 0.454848,0.443419 0.202436,0.283907 0.528341,0.69042 0.724233,0.90336 0.195891,0.212941 0.331153,0.395574 0.300581,0.405852 -0.0852,0.02864 -1.169134,0.819196 -1.479515,1.079061 l -0.2753,0.230494 z M 30.929978,22.584834 c -0.04602,-0.544427 -0.04598,-1.804506 7e-5,-2.187897 l 0.03529,-0.293777 h 0.915507 0.915507 v -0.671493 -0.671492 h 0.699471 c 0.662166,0 0.699472,0.006 0.699472,0.111915 0,0.107252 0.0373,0.111916 0.895322,0.111916 h 0.895324 v 0.811386 0.811387 H 35.174556 34.36317 v 0.249852 0.249852 l -0.573566,0.01595 -0.573567,0.01595 -0.01534,0.937292 -0.01534,0.937291 h -1.109589 -1.10959 z m 0.600329,-1.40716 c 0.04424,-0.07159 -0.05839,-0.197263 -0.126643,-0.155079 -0.08984,0.05552 -0.07653,0.199718 0.01842,0.199718 0.04435,0 0.09305,-0.02009 0.108223,-0.04464 z m 0.706466,-0.794726 c 0,-0.06217 -0.0373,-0.111915 -0.08394,-0.111915 -0.04663,0 -0.08394,0.04974 -0.08394,0.111915 0,0.06218 0.0373,0.111915 0.08394,0.111915 0.04663,0 0.08394,-0.04974 0.08394,-0.111915 z m 7.087974,2.592707 c -0.02052,-0.02052 -0.0373,-0.461185 -0.0373,-0.97926 V 21.05444 h 0.811386 0.811386 v 0.97926 0.97926 h -0.774081 c -0.425745,0 -0.790868,-0.01679 -0.811386,-0.0373 z m -1.905901,-2.457389 c -0.01868,-0.04868 -0.03396,-0.275311 -0.03396,-0.50362 V 19.59954 h 0.567549 0.567548 l -0.03595,0.343955 c -0.01977,0.189175 -0.03595,0.415804 -0.03595,0.503619 v 0.159665 h -0.497632 c -0.402155,0 -0.504149,-0.01698 -0.531598,-0.08851 z m 5.057657,-0.560007 C 42.184414,19.661664 41.810687,19.3033 41.646,19.161895 L 41.346568,18.904793 41.592137,18.6786 c 0.135063,-0.124406 0.32017,-0.290416 0.411347,-0.368911 0.09118,-0.0785 0.350033,-0.342895 0.575234,-0.587555 l 0.409454,-0.444838 0.31731,0.363725 c 0.355484,0.407481 0.522518,0.577768 0.951696,0.970226 l 0.296087,0.270754 -0.582712,0.568611 c -0.320492,0.312736 -0.668272,0.676228 -0.772846,0.80776 l -0.190133,0.23915 z M 6.2672177,19.581255 c -0.360035,-0.190077 -0.569367,-0.516241 -0.599604,-0.934257 -0.03147,-0.435003 0.06705,-0.778097 0.302363,-1.053005 0.359947,-0.420517 0.395897,-0.426274 2.7827018,-0.445635 1.4220215,-0.01153 2.2165635,0.0036 2.4213395,0.0461 0.615922,0.127865 1.029902,0.626522 1.029902,1.240564 0,0.550402 -0.244667,0.959772 -0.699471,1.17034 -0.206652,0.09568 -0.406759,0.103724 -2.607221,0.104859 l -2.3833893,0.0012 z M 8.0910295,18.87209 c 0,-0.04103 -0.03148,-0.0851 -0.06995,-0.09793 -0.04161,-0.01387 -0.06995,0.0258 -0.06995,0.09793 0,0.07212 0.02834,0.111796 0.06995,0.09793 0.03847,-0.01282 0.06995,-0.05689 0.06995,-0.09793 z m 0.697243,-0.305082 c 0.1000405,-0.120541 0.01802,-0.320775 -0.122767,-0.299725 -0.166382,0.02488 -0.251114,0.18098 -0.158686,0.29235 0.09166,0.110446 0.193693,0.11312 0.281453,0.0074 z m 1.8376405,-0.433559 c 0.09362,-0.09362 0.08381,-0.297024 -0.01843,-0.381874 -0.07099,-0.05892 -0.10914,-0.04889 -0.223831,0.05886 -0.162227,0.152404 -0.167639,0.18491 -0.05032,0.302229 0.105145,0.105145 0.201381,0.111982 0.292579,0.02078 z M 36.601472,17.808894 V 17.19336 h 0.671493 0.671492 v 0.615534 0.615535 h -0.671492 -0.671493 z m -7.064658,0.127793 -0.153883,-0.02331 v -1.171394 -1.171394 h 0.671492 0.671492 v 0.587555 0.587556 h 0.671493 0.671492 v -0.311484 c 0,-0.306788 0.0023,-0.311217 0.153883,-0.293778 0.142012,0.01634 0.155329,0.03929 0.172609,0.297495 0.0103,0.153884 0.0015,0.563074 -0.01951,0.909312 l -0.03823,0.629525 -1.323475,-0.0084 c -0.727911,-0.0046 -1.392722,-0.01887 -1.477358,-0.03169 z m 1.804636,-0.299769 c 0,-0.1434 -0.185211,-0.127132 -0.213302,0.01874 -0.01293,0.06715 0.0172,0.09728 0.09728,0.09728 0.08008,0 0.116019,-0.03594 0.116019,-0.116019 z m 2.781608,-0.03786 c -0.105023,-0.350662 -0.777386,-2.119718 -0.844661,-2.222394 -0.09198,-0.140379 -0.27626,-0.217943 -1.601201,-0.673951 -0.507816,-0.174776 -0.943205,-0.336565 -0.96753,-0.35953 -0.04757,-0.04491 0.125196,-0.16839 0.827636,-0.591508 0.246214,-0.148308 0.617633,-0.37976 0.825376,-0.514338 l 0.377714,-0.244687 -0.0027,-0.37577 c -0.0015,-0.206674 -0.02435,-0.803847 -0.05083,-1.327052 -0.02649,-0.523204 -0.0391,-0.960538 -0.02804,-0.971854 0.01106,-0.01131 0.380172,0.230434 0.820248,0.53722 1.143123,0.796896 1.233915,0.854317 1.350797,0.854317 0.05775,0 0.60727,-0.226629 1.221161,-0.503619 0.61389,-0.276991 1.127368,-0.503619 1.141062,-0.503619 0.05772,0 0.0054,0.171065 -0.3645,1.191768 -0.214168,0.590985 -0.403628,1.137471 -0.421021,1.214412 -0.02672,0.118202 0.09558,0.291741 0.78871,1.119154 l 0.820335,0.97926 -1.236938,0.0309 c -0.680315,0.017 -1.246564,0.04218 -1.258329,0.05596 -0.01177,0.01378 -0.307135,0.560152 -0.656377,1.214158 -0.349242,0.654005 -0.652224,1.1891 -0.673294,1.1891 -0.02107,0 -0.05151,-0.04407 -0.06764,-0.09793 z m -2.330789,-3.217567 c 0.13457,-0.161309 0.134067,-0.223514 -0.0031,-0.385505 l -0.111871,-0.132108 -0.116626,0.153884 c -0.06414,0.08464 -0.164888,0.153883 -0.223875,0.153883 -0.144057,0 -0.135393,0.03655 0.04664,0.196768 0.192627,0.169543 0.276094,0.172212 0.408852,0.01307 z m 0.836207,-0.769419 c 0,-0.06155 -0.02518,-0.111915 -0.05596,-0.111915 -0.03077,0 -0.05596,0.01053 -0.05596,0.0234 0,0.01287 -0.01528,0.06323 -0.03396,0.111915 -0.02229,0.05808 -0.0031,0.08851 0.05596,0.08851 0.05262,0 0.08992,-0.04643 0.08992,-0.111915 z m 1.426922,-0.503623 c -0.02708,-0.04381 -0.05926,-0.04706 -0.09657,-0.0098 -0.03077,0.03078 -0.03768,0.08553 -0.01535,0.121667 0.02708,0.0438 0.05926,0.04706 0.09657,0.0097 0.03077,-0.03078 0.03768,-0.08553 0.01535,-0.121667 z m 5.623748,2.965757 v -0.839365 h 0.791911 0.791911 l -0.03648,0.59626 c -0.02007,0.327944 -0.03648,0.705658 -0.03648,0.839366 v 0.243104 H 40.43457 39.679142 Z m -0.960849,-1.484167 c -0.01012,-0.231534 -0.01002,-0.445572 2.41e-4,-0.475641 0.02164,-0.06343 0.941826,-0.07537 0.978688,-0.0127 0.01358,0.02308 0.01175,0.237121 -0.004,0.475641 l -0.02874,0.433672 h -0.463861 -0.46386 z m -16.458273,-0.179506 -0.212132,-0.02209 0.01628,-0.430157 0.01628,-0.430158 0.48963,-0.01639 0.48963,-0.01639 v 0.444078 c 0,0.548255 -0.0088,0.553453 -0.799688,0.47111 z M 41.623675,13.6096 c -0.42318,-0.426973 -0.769418,-0.786232 -0.769418,-0.798352 0,-0.01212 0.157381,-0.144592 0.349736,-0.294382 0.192354,-0.149791 0.530878,-0.455677 0.752276,-0.679747 0.221397,-0.224071 0.424007,-0.407402 0.450245,-0.407402 0.02624,0 0.200235,0.170364 0.386661,0.378587 0.186427,0.208222 0.529075,0.528241 0.761442,0.711152 l 0.422485,0.332567 -0.260406,0.224998 c -0.485813,0.419753 -1.009878,0.939105 -1.139015,1.128769 -0.07075,0.103906 -0.14122,0.186942 -0.156609,0.184523 -0.01539,-0.0024 -0.374217,-0.353739 -0.797397,-0.780713 z m -15.822036,0.310235 v -0.195852 h -0.699472 -0.699471 v -0.503619 -0.50362 h 1.342985 1.342984 v 0.699471 0.699472 h -0.643513 -0.643513 z m -4.155721,-1.068722 c -0.02261,-0.02261 -0.0411,-0.32649 -0.0411,-0.675293 v -0.634187 h 0.783407 0.783408 l -4.62e-4,0.657503 -4.63e-4,0.657503 -0.741839,0.01779 c -0.408013,0.0098 -0.760338,-7e-4 -0.782946,-0.02332 z m 7.946854,-0.459191 c -0.26236,-0.01684 -0.265799,-0.01955 -0.265799,-0.209842 v -0.192786 h -1.008862 -1.008863 l 0.01561,-0.741439 c 0.01172,-0.556798 0.03303,-0.737955 0.08556,-0.727449 0.102501,0.0205 0.08657,-0.247448 -0.01708,-0.287221 -0.0655,-0.02514 -0.0828,-0.09928 -0.06995,-0.299765 l 0.01708,-0.266369 1.69272,-0.01481 1.69272,-0.01481 v 0.919458 c 0,0.680854 -0.01815,0.92793 -0.06995,0.952101 -0.05596,0.02612 -0.05596,0.03917 0,0.06528 0.04607,0.0215 0.06995,0.164765 0.06995,0.419683 v 0.387042 l -0.265799,0.0043 c -0.14619,0.0024 -0.341342,0.0087 -0.433672,0.01399 -0.09233,0.0053 -0.287483,0.002 -0.433672,-0.0074 z m -0.683694,-2.254864 c 0.02052,-0.06465 0.0094,-0.14541 -0.02461,-0.179464 -0.08371,-0.08371 -0.256762,0.08797 -0.210419,0.208737 0.04858,0.126604 0.191191,0.108843 0.235027,-0.02927 z M 39.81904,10.7875 C 39.449719,10.409687 39.072004,10.044238 38.979675,9.975389 L 38.811801,9.850211 39.09159,9.619267 c 0.360562,-0.297616 0.904314,-0.8382393 1.147921,-1.141317 0.105135,-0.130801 0.205849,-0.2378201 0.223808,-0.2378201 0.01796,0 0.200164,0.2106888 0.404899,0.4681979 0.204734,0.2575082 0.549928,0.6163372 0.767097,0.7973962 l 0.394853,0.3292 -0.447037,0.410461 c -0.245871,0.225754 -0.57792,0.578287 -0.737888,0.783407 -0.159968,0.205121 -0.305219,0.389303 -0.322781,0.409293 -0.01756,0.01999 -0.334102,-0.272773 -0.703422,-0.650585 z m -5.138781,-0.458283 c -0.02052,-0.02052 -0.03731,-0.284918 -0.03731,-0.587556 V 9.19141 h 0.615535 0.615535 v 0.499043 c 0,0.274473 -0.01528,0.538874 -0.03397,0.587556 -0.02775,0.07232 -0.133553,0.08851 -0.578229,0.08851 -0.299346,0 -0.561052,-0.01679 -0.58157,-0.0373 z M 24.850358,9.801055 V 9.303326 h 0.503619 0.503619 v 0.504502 0.504503 l -0.503619,-0.0068 -0.503619,-0.0068 z m 19.193487,-0.0011 V 9.303274 h 0.503619 0.50362 v 0.50586 0.505859 l -0.50362,-0.0092 -0.503619,-0.0092 z M 21.604812,8.4919379 V 7.7924668 h 0.699471 0.699471 v 0.5246033 c 0,0.2885319 -0.01574,0.6032939 -0.03497,0.6994709 l -0.03497,0.174868 h -0.664497 -0.664498 z m 9.997774,0.4942931 c -0.02052,-0.02052 -0.0373,-0.2471464 -0.0373,-0.5036192 V 8.0162976 h 0.531598 0.531598 V 8.5199171 9.023536 h -0.494293 c -0.271861,0 -0.51108,-0.01679 -0.531598,-0.0373 z M 26.724941,8.3723217 C 26.54028,8.141272 26.175156,7.7495228 25.913554,7.5017677 L 25.437914,7.0513035 25.684718,6.848319 c 0.135743,-0.1116414 0.4404,-0.3709863 0.677016,-0.5763219 l 0.430211,-0.373337 0.498096,0.5021473 c 0.273952,0.2761808 0.669582,0.6456304 0.879176,0.8209986 l 0.381081,0.3188512 -0.187971,0.1678734 c -0.332702,0.2971296 -1.272896,1.0912938 -1.287499,1.0875273 -0.0078,-0.002 -0.165227,-0.192687 -0.349887,-0.4237362 z m 0.413847,-1.0786832 c 0.08073,-0.051115 0.04849,-0.2286216 -0.04151,-0.2286216 -0.08227,0 -0.189261,0.1578814 -0.150017,0.2213797 0.0437,0.070715 0.08861,0.072412 0.191531,0.00724 z M 33.873535,8.589229 33.579758,8.570027 V 8.1532686 7.7365103 h 0.447661 0.447661 v 0.4196824 c 0,0.2308257 -0.01889,0.4215541 -0.04197,0.4238412 -0.02308,0.0023 -0.09233,0.00961 -0.153883,0.016278 -0.06155,0.00666 -0.244116,0.0035 -0.405694,-0.00708 z M 36.4336,7.1007905 v -0.523804 l 0.293777,-0.035285 c 0.161578,-0.019407 0.451159,-0.035505 0.643514,-0.035775 l 0.349735,-4.856e-4 v 0.559577 0.559577 H 37.077113 36.4336 Z M 30.893789,5.4723243 v -0.533698 h 0.533697 0.533698 l -0.01609,0.5176084 -0.01609,0.5176089 -0.517608,0.016088 -0.517609,0.016088 z m 11.588029,0.2839876 -1.086387,-0.1182145 0.01012,-0.4476616 c 0.01895,-0.8385473 0.05404,-0.9993368 0.241577,-1.1069683 0.09212,-0.052867 0.259871,-0.096385 0.37279,-0.096706 0.310558,-8.999e-4 1.934211,0.1791851 1.98049,0.2196429 0.03792,0.03315 -0.04238,1.2812657 -0.100214,1.5575975 -0.03145,0.150285 0.03682,0.1506555 -1.418372,-0.00769 z M 35.431948,4.9174006 C 35.269533,4.7210661 34.911485,4.3642646 34.636284,4.1245092 34.361083,3.8847533 34.155573,3.6723283 34.179594,3.6524538 c 0.668291,-0.55292 1.1682,-1.0255648 1.470223,-1.3900416 l 0.15421,-0.1860966 0.399843,0.4695763 c 0.219913,0.2582665 0.573417,0.6141617 0.785564,0.7908777 l 0.385721,0.3213019 -0.811564,0.8081505 c -0.44636,0.4444826 -0.81714,0.8081505 -0.823955,0.8081505 -0.0068,0 -0.145275,-0.1606374 -0.307688,-0.3569719 z M 27.457317,4.560912 27.136471,4.1272398 27.398001,3.8892112 c 0.143841,-0.130916 0.332164,-0.288325 0.418495,-0.3497986 l 0.156966,-0.1117694 0.218737,0.2658619 c 0.347638,0.4225324 0.480803,0.6347965 0.428194,0.6825377 -0.162698,0.1476424 -0.776661,0.618541 -0.806461,0.618541 -0.01967,0 -0.18015,-0.1951522 -0.356615,-0.4336718 z M 39.881164,0.87586994 c -0.08624,-0.26480596 -0.135494,-0.50166892 -0.10946,-0.52636382 0.05993,-0.05685 0.783199,-0.27919892 0.90818,-0.27919892 0.06864,0 0.119672,0.10078896 0.191233,0.37771482 0.05368,0.20774296 0.111523,0.43040692 0.128532,0.49480892 0.02744,0.10390696 -0.01975,0.13384496 -0.419005,0.26579896 -0.247461,0.08179 -0.4708,0.1487041 -0.496308,0.1487041 -0.02551,0 -0.116934,-0.2166591 -0.203172,-0.48146406 z"
       id="path1" />
  </g>
</svg>
